<svg width="12" height="12" viewBox="0 0 12 12" fill="none" xmlns="http://www.w3.org/2000/svg">
<path d="M11.8 2.00008H0.2C0.0895431 2.00008 0 2.08962 0 2.20008V9.7999C0 9.91036 0.0895429 9.9999 0.2 9.9999H11.8C11.9105 9.9999 12 9.91036 12 9.7999V2.20008C12 2.08962 11.9105 2.00008 11.8 2.00008Z" fill="#D80027"/>
<path d="M12 2.00008H6V5.99999H12V2.00008Z" fill="#F0F0F0"/>
<path d="M6 2.00008H0V5.99999H6V2.00008Z" fill="#0052B4"/>
<path d="M3 2.57347L3.35409 3.66327H4.5L3.57295 4.33684L3.92705 5.42664L3 4.75311L2.07295 5.42664L2.42705 4.33684L1.5 3.66327H2.64591L3 2.57347Z" fill="#F0F0F0"/>
</svg>
