<svg width="12" height="12" viewBox="0 0 12 12" fill="none" xmlns="http://www.w3.org/2000/svg">
<g clip-path="url(#clip0)">
<path d="M6.15136 0.00250112C3.71441 -0.0796256 1.71313 1.87139 1.71313 4.28979C1.71313 7.03441 4.34703 9.02627 5.82332 11.8908C5.89828 12.0363 6.10765 12.0365 6.18286 11.891C7.51838 9.31352 9.80096 7.58514 10.224 5.102C10.662 2.53242 8.75647 0.0903288 6.15136 0.00250112ZM6.00288 6.53679C4.76191 6.53679 3.75588 5.53074 3.75588 4.28979C3.75588 3.04885 4.76194 2.04279 6.00288 2.04279C7.24385 2.04279 8.2499 3.04885 8.2499 4.28979C8.2499 5.53074 7.24385 6.53679 6.00288 6.53679Z" fill="white"/>
</g>
<defs>
<clipPath id="clip0">
<rect width="12" height="12" fill="white"/>
</clipPath>
</defs>
</svg>
