<svg width="12" height="12" viewBox="0 0 12 12" fill="none" xmlns="http://www.w3.org/2000/svg">
<g clip-path="url(#clip0)">
<path d="M10.9284 10.7143C11.1982 10.7143 11.4319 10.6252 11.6306 10.4494L8.2308 7.04944C8.14923 7.10785 8.07017 7.16465 7.99548 7.21866C7.74106 7.40611 7.53456 7.55238 7.376 7.6572C7.21746 7.76226 7.00652 7.86934 6.74321 7.97866C6.47972 8.08812 6.23425 8.14267 6.00653 8.14267H5.99987H5.9932C5.76546 8.14267 5.51999 8.08814 5.25653 7.97866C4.99306 7.86934 4.78212 7.76226 4.62373 7.6572C4.46519 7.55238 4.25881 7.40613 4.00425 7.21866C3.93331 7.16665 3.85464 7.10959 3.76958 7.04852L0.369141 10.4494C0.567813 10.6252 0.801694 10.7143 1.07141 10.7143H10.9284V10.7143Z" fill="white"/>
<path d="M0.676411 4.9085C0.422008 4.73889 0.196407 4.54464 0 4.32584V9.49854L2.99656 6.50198C2.39708 6.08346 1.62468 5.55291 0.676411 4.9085Z" fill="white"/>
<path d="M11.3304 4.9085C10.4183 5.52585 9.64305 6.05731 9.00464 6.50318L12 9.49867V4.32584C11.808 4.54024 11.5848 4.73436 11.3304 4.9085Z" fill="white"/>
<path d="M10.9295 1.28569H1.07246C0.728578 1.28569 0.464197 1.40181 0.278988 1.63382C0.0936267 1.86593 0.00109863 2.15622 0.00109863 2.50435C0.00109863 2.78555 0.123888 3.09024 0.369359 3.4185C0.61483 3.74663 0.87603 4.00436 1.15283 4.19184C1.30457 4.29905 1.76218 4.61718 2.52565 5.14612C2.93779 5.43172 3.2962 5.68065 3.6042 5.89547C3.86673 6.07839 4.09314 6.2368 4.28007 6.36826C4.30153 6.38332 4.33528 6.40746 4.38007 6.43948C4.42833 6.47415 4.4894 6.51813 4.56474 6.57253C4.70981 6.67746 4.83034 6.76227 4.92633 6.82707C5.02219 6.89188 5.13834 6.96428 5.27459 7.04467C5.41073 7.12496 5.53914 7.18533 5.65967 7.22548C5.78021 7.26561 5.89181 7.28574 5.99446 7.28574H6.00113H6.0078C6.11044 7.28574 6.22205 7.26561 6.34262 7.22548C6.46312 7.18533 6.59142 7.12509 6.72767 7.04467C6.8638 6.96428 6.97979 6.89173 7.07596 6.82707C7.17195 6.76227 7.29247 6.67748 7.43757 6.57253C7.51276 6.51813 7.57383 6.47412 7.62208 6.43959C7.6669 6.40743 7.70062 6.38345 7.72221 6.36826C7.86784 6.26693 8.09477 6.10917 8.39987 5.89732C8.95504 5.51159 9.77265 4.94385 10.8561 4.19184C11.182 3.96423 11.4543 3.68957 11.6731 3.36824C11.8915 3.0469 12.001 2.70984 12.001 2.35716C12.001 2.06249 11.8948 1.81036 11.6829 1.60036C11.4708 1.39061 11.2196 1.28569 10.9295 1.28569Z" fill="white"/>
</g>
<defs>
<clipPath id="clip0">
<rect width="12" height="12" fill="white"/>
</clipPath>
</defs>
</svg>
