<svg width="12" height="12" viewBox="0 0 12 12" fill="none" xmlns="http://www.w3.org/2000/svg">
<g clip-path="url(#clip0)">
<path d="M9.12318 7.93823C8.73114 7.55118 8.24171 7.55118 7.85217 7.93823C7.55501 8.23289 7.25786 8.52754 6.9657 8.82719C6.8858 8.9096 6.81837 8.92708 6.72099 8.87214C6.52871 8.76726 6.32395 8.68236 6.13917 8.5675C5.27767 8.02563 4.55601 7.32894 3.91676 6.54486C3.59963 6.15531 3.31746 5.7383 3.12019 5.26884C3.08024 5.17396 3.08773 5.11153 3.16514 5.03412C3.46229 4.74695 3.75195 4.4523 4.04411 4.15764C4.45114 3.74812 4.45114 3.26868 4.04161 2.85666C3.80938 2.62193 3.57716 2.3922 3.34493 2.15747C3.10521 1.91775 2.86798 1.67554 2.62577 1.43831C2.23372 1.05626 1.74429 1.05626 1.35475 1.44081C1.0551 1.73547 0.767933 2.03761 0.463288 2.32728C0.181117 2.59446 0.0387835 2.92158 0.00881849 3.30364C-0.0386262 3.92541 0.113696 4.51223 0.328446 5.08406C0.767933 6.26768 1.43715 7.31895 2.24871 8.28283C3.34493 9.58631 4.6534 10.6176 6.18411 11.3617C6.87331 11.6963 7.58748 11.9535 8.36407 11.996C8.89845 12.026 9.36291 11.8911 9.73497 11.4741C9.98967 11.1894 10.2768 10.9297 10.5465 10.6576C10.9461 10.253 10.9486 9.7636 10.5515 9.36407C10.0771 8.88712 9.60013 8.41268 9.12318 7.93823Z" fill="white"/>
<path d="M8.64623 5.94806L9.56766 5.79074C9.42283 4.94423 9.02329 4.17762 8.4165 3.56834C7.77475 2.92658 6.9632 2.52206 6.06924 2.3972L5.93939 3.32362C6.63109 3.42101 7.26035 3.73314 7.75727 4.23006C8.22672 4.69952 8.53387 5.29382 8.64623 5.94806Z" fill="white"/>
<path d="M10.0871 1.94273C9.02331 0.878975 7.67738 0.207258 6.19162 0L6.06177 0.926419C7.34527 1.10621 8.50891 1.68803 9.42784 2.60446C10.2993 3.47594 10.8712 4.57716 11.0784 5.78825L11.9998 5.63093C11.7576 4.22757 11.0959 2.95405 10.0871 1.94273Z" fill="white"/>
</g>
<defs>
<clipPath id="clip0">
<rect width="12" height="12" fill="white"/>
</clipPath>
</defs>
</svg>
