<?xml version="1.0" encoding="utf-8"?>
<!-- Generator: Adobe Illustrator 23.0.2, SVG Export Plug-In . SVG Version: 6.00 Build 0)  -->
<svg version="1.1" id="Layer_1" xmlns="http://www.w3.org/2000/svg" xmlns:xlink="http://www.w3.org/1999/xlink" x="0px" y="0px"
	 viewBox="0 0 565.33 115.33" style="enable-background:new 0 0 565.33 115.33;" xml:space="preserve">
<style type="text/css">
	.st0{fill:#BDD0D1;}
	.st1{fill:#6A7B82;}
	.st2{fill:#EB0029;}
	.st3{opacity:0.15;}
	.st4{clip-path:url(#path3347_1_);fill:#FFFFFF;}
	.st5{opacity:0.2;}
	.st6{clip-path:url(#SVGID_2_);fill:#FFFFFF;}
	.st7{clip-path:url(#SVGID_4_);fill:#FFFFFF;}
	.st8{clip-path:url(#SVGID_6_);fill:#FFFFFF;}
	.st9{opacity:0.1;}
	.st10{clip-path:url(#SVGID_8_);fill:#FFFFFF;}
	.st11{clip-path:url(#SVGID_10_);fill:#FFFFFF;}
</style>
<g>
	<g>
		<path class="st0" d="M25.76,91.01v-6.44h0.66v6.41c0,0.57,0.07,1.06,0.21,1.49c0.14,0.42,0.36,0.78,0.66,1.07
			c0.3,0.29,0.7,0.52,1.2,0.67c0.5,0.16,1.1,0.23,1.79,0.23c0.7,0,1.29-0.08,1.79-0.23c0.5-0.16,0.9-0.38,1.2-0.67
			c0.3-0.29,0.52-0.65,0.66-1.07c0.14-0.42,0.21-0.91,0.21-1.49v-6.41h0.66v6.44c0,0.88-0.17,1.62-0.51,2.21
			c-0.34,0.59-0.84,1.04-1.52,1.35c-0.67,0.3-1.51,0.45-2.5,0.45c-0.99,0-1.82-0.15-2.5-0.45c-0.67-0.3-1.18-0.75-1.52-1.35
			C25.93,92.63,25.76,91.89,25.76,91.01z"/>
		<path class="st0" d="M44.67,94.79V84.57h0.83l7.63,9.3h0.03v-9.3h0.66v10.22h-0.83l-7.64-9.3h-0.03v9.3H44.67z"/>
		<path class="st0" d="M74.71,91.42h0.66c0.01,2.02,1.32,3.03,3.92,3.03c0.8,0,1.45-0.1,1.96-0.3c0.51-0.2,0.88-0.47,1.11-0.82
			c0.23-0.34,0.35-0.73,0.35-1.16c0-0.39-0.08-0.71-0.23-0.96c-0.15-0.25-0.42-0.47-0.8-0.65c-0.38-0.18-0.94-0.34-1.67-0.49
			l-1.9-0.4c-0.78-0.17-1.39-0.36-1.83-0.58c-0.44-0.22-0.76-0.49-0.96-0.83c-0.2-0.34-0.3-0.76-0.3-1.27
			c0-0.51,0.15-0.97,0.44-1.37s0.74-0.71,1.32-0.94c0.58-0.23,1.28-0.34,2.1-0.34c0.67,0,1.25,0.06,1.76,0.18
			c0.51,0.12,0.95,0.31,1.32,0.56c0.38,0.26,0.66,0.58,0.87,0.98c0.21,0.4,0.31,0.86,0.33,1.39h-0.65
			c-0.03-0.44-0.15-0.85-0.37-1.23c-0.21-0.38-0.57-0.7-1.07-0.94c-0.5-0.25-1.17-0.37-2-0.37c-1.17,0-2.02,0.19-2.53,0.56
			s-0.78,0.88-0.78,1.53c0,0.38,0.07,0.7,0.2,0.94c0.13,0.24,0.38,0.45,0.73,0.62c0.35,0.17,0.85,0.32,1.49,0.45l2.11,0.41
			c1.08,0.21,1.88,0.51,2.39,0.91c0.51,0.4,0.77,1,0.77,1.78c0,0.51-0.13,0.99-0.38,1.42c-0.26,0.43-0.69,0.79-1.31,1.06
			c-0.61,0.28-1.42,0.41-2.42,0.41c-1.08,0-1.97-0.15-2.66-0.44c-0.69-0.29-1.19-0.71-1.51-1.24C74.87,92.8,74.71,92.16,74.71,91.42
			z"/>
		<path class="st0" d="M92.94,94.79V84.57h8.07v0.57H93.6v4.06h7.11v0.57H93.6v4.44h7.5v0.57H92.94z"/>
		<path class="st0" d="M110.45,94.79V84.57h5.22c1.09,0,1.94,0.2,2.54,0.6c0.61,0.4,0.91,1.1,0.91,2.1c0,0.37-0.08,0.72-0.23,1.07
			c-0.15,0.35-0.39,0.65-0.7,0.91c-0.31,0.26-0.7,0.44-1.16,0.55v0.03c0.6,0.08,1.07,0.3,1.4,0.69c0.33,0.38,0.5,0.86,0.51,1.43
			c0.01,0.94,0.04,1.6,0.08,1.98c0.04,0.38,0.11,0.67,0.21,0.85h-0.66c-0.06-0.05-0.1-0.16-0.14-0.33
			c-0.04-0.17-0.07-0.41-0.09-0.72c-0.02-0.3-0.04-0.75-0.05-1.32c-0.01-0.61-0.1-1.08-0.26-1.39c-0.16-0.32-0.42-0.55-0.79-0.68
			c-0.37-0.13-0.9-0.2-1.58-0.2h-4.55v4.65H110.45z M111.1,85.15v4.42h4.45c1.94,0,2.91-0.78,2.91-2.33c0-0.77-0.25-1.31-0.75-1.62
			c-0.5-0.31-1.16-0.47-1.99-0.47H111.1z"/>
		<path class="st0" d="M132.44,94.79l-4.54-10.22h0.74l4.17,9.38l4.17-9.38h0.74l-4.54,10.22H132.44z"/>
		<path class="st0" d="M146.68,94.79V84.57h0.66v10.22H146.68z"/>
		<path class="st0" d="M166.65,90.91h0.66c-0.06,0.51-0.21,1.01-0.46,1.49c-0.25,0.49-0.58,0.93-1,1.32
			c-0.42,0.39-0.93,0.71-1.54,0.94c-0.61,0.24-1.28,0.36-2.01,0.36c-1.04,0-1.97-0.21-2.8-0.63c-0.83-0.42-1.47-1.04-1.94-1.85
			c-0.47-0.81-0.7-1.76-0.7-2.85c0-0.87,0.2-1.71,0.6-2.53c0.4-0.82,1.01-1.5,1.83-2.02c0.82-0.53,1.82-0.79,3.01-0.79
			c0.63,0,1.21,0.07,1.74,0.21c0.53,0.14,1,0.36,1.42,0.65c0.42,0.29,0.78,0.65,1.07,1.09c0.29,0.44,0.5,0.93,0.62,1.48h-0.66
			c-0.15-0.62-0.44-1.15-0.86-1.58c-0.42-0.44-0.91-0.76-1.49-0.96c-0.58-0.21-1.19-0.31-1.85-0.31c-0.94,0-1.77,0.21-2.5,0.64
			c-0.73,0.43-1.29,1.01-1.69,1.73c-0.39,0.73-0.59,1.52-0.59,2.39c0,0.64,0.1,1.25,0.3,1.82c0.2,0.57,0.51,1.08,0.92,1.53
			c0.41,0.45,0.92,0.8,1.52,1.05c0.6,0.25,1.28,0.37,2.03,0.37c1.15,0,2.11-0.32,2.9-0.95C165.97,92.87,166.46,92.01,166.65,90.91z"
			/>
		<path class="st0" d="M176.91,94.79V84.57h0.66v10.22H176.91z"/>
		<path class="st0" d="M187.07,89.68c0-0.54,0.1-1.13,0.29-1.75c0.19-0.62,0.5-1.2,0.92-1.74c0.42-0.54,0.98-0.98,1.69-1.33
			c0.71-0.35,1.55-0.52,2.53-0.52s1.81,0.17,2.52,0.52c0.71,0.34,1.28,0.79,1.7,1.33c0.42,0.54,0.73,1.12,0.91,1.73
			c0.19,0.61,0.28,1.2,0.28,1.76c0,0.56-0.09,1.14-0.28,1.75c-0.19,0.61-0.5,1.19-0.92,1.74c-0.43,0.55-0.99,1-1.7,1.34
			c-0.71,0.34-1.54,0.51-2.52,0.51s-1.81-0.17-2.52-0.52c-0.71-0.35-1.27-0.79-1.69-1.34s-0.73-1.13-0.92-1.75
			C187.17,90.8,187.07,90.22,187.07,89.68z M187.73,89.68c0,0.82,0.19,1.6,0.56,2.34c0.38,0.73,0.92,1.32,1.65,1.76
			c0.72,0.44,1.58,0.66,2.55,0.66c0.97,0,1.82-0.22,2.55-0.66c0.72-0.44,1.28-1.03,1.65-1.77c0.38-0.73,0.57-1.52,0.57-2.34
			c0-0.62-0.11-1.22-0.31-1.79c-0.21-0.57-0.52-1.08-0.92-1.53c-0.4-0.45-0.91-0.8-1.51-1.06c-0.61-0.26-1.28-0.39-2.02-0.39
			c-0.74,0-1.41,0.13-2.01,0.39c-0.6,0.26-1.1,0.61-1.52,1.06c-0.41,0.45-0.72,0.96-0.93,1.53
			C187.83,88.46,187.73,89.06,187.73,89.68z"/>
		<path class="st0" d="M207.78,94.79v-1.43h0.74v1.43c0,0.97-0.33,1.59-1,1.86v-0.48c0.34-0.15,0.51-0.54,0.51-1.16v-0.22H207.78z"
			/>
		<path class="st0" d="M235.67,90.27V89.7h4.77v5.09h-0.57v-2.52h-0.03c-0.26,0.6-0.61,1.1-1.06,1.51
			c-0.45,0.41-0.96,0.72-1.54,0.93c-0.58,0.21-1.2,0.31-1.87,0.31c-1.04,0-1.97-0.21-2.8-0.63c-0.82-0.42-1.47-1.04-1.94-1.85
			c-0.47-0.81-0.7-1.76-0.7-2.85c0-0.87,0.2-1.71,0.6-2.53c0.4-0.82,1.01-1.5,1.83-2.02c0.82-0.53,1.82-0.79,3-0.79
			c0.84,0,1.59,0.13,2.26,0.4c0.67,0.27,1.22,0.65,1.67,1.17c0.45,0.51,0.75,1.13,0.92,1.87h-0.66c-0.13-0.61-0.4-1.13-0.8-1.56
			c-0.4-0.43-0.89-0.75-1.47-0.97c-0.58-0.22-1.22-0.32-1.92-0.32c-0.94,0-1.77,0.21-2.5,0.64c-0.73,0.43-1.29,1.01-1.69,1.73
			c-0.39,0.73-0.59,1.52-0.59,2.39c0,0.64,0.1,1.25,0.3,1.82c0.2,0.57,0.51,1.08,0.92,1.53c0.41,0.45,0.92,0.8,1.52,1.05
			c0.6,0.25,1.28,0.37,2.03,0.37c0.85,0,1.6-0.17,2.25-0.51c0.65-0.34,1.16-0.82,1.52-1.45c0.37-0.63,0.58-1.37,0.64-2.23H235.67z"
			/>
		<path class="st0" d="M250.39,94.79V84.57h5.22c1.09,0,1.94,0.2,2.54,0.6c0.61,0.4,0.91,1.1,0.91,2.1c0,0.37-0.08,0.72-0.23,1.07
			c-0.15,0.35-0.38,0.65-0.7,0.91c-0.31,0.26-0.7,0.44-1.16,0.55v0.03c0.6,0.08,1.07,0.3,1.4,0.69c0.33,0.38,0.5,0.86,0.51,1.43
			c0.01,0.94,0.04,1.6,0.08,1.98c0.04,0.38,0.11,0.67,0.21,0.85h-0.66c-0.05-0.05-0.1-0.16-0.14-0.33
			c-0.04-0.17-0.07-0.41-0.09-0.72c-0.02-0.3-0.04-0.75-0.05-1.32c-0.01-0.61-0.1-1.08-0.26-1.39c-0.16-0.32-0.42-0.55-0.79-0.68
			c-0.37-0.13-0.9-0.2-1.58-0.2h-4.55v4.65H250.39z M251.05,85.15v4.42h4.45c1.94,0,2.91-0.78,2.91-2.33c0-0.77-0.25-1.31-0.75-1.62
			c-0.5-0.31-1.16-0.47-1.98-0.47H251.05z"/>
		<path class="st0" d="M267.68,94.79l4.7-10.22h0.75l4.69,10.22h-0.74l-1.5-3.29h-5.64l-1.5,3.29H267.68z M272.74,85.31l-2.56,5.61
			h5.12L272.74,85.31z"/>
		<path class="st0" d="M286.74,94.79V84.57h0.83l7.63,9.3h0.03v-9.3h0.66v10.22h-0.82l-7.64-9.3h-0.03v9.3H286.74z"/>
		<path class="st0" d="M305.83,94.79V84.57h4.78c0.65,0,1.25,0.09,1.79,0.26c0.54,0.17,1.02,0.45,1.44,0.84
			c0.42,0.39,0.75,0.92,0.99,1.58c0.24,0.66,0.36,1.47,0.36,2.43c0,0.77-0.1,1.46-0.29,2.08c-0.19,0.62-0.48,1.15-0.88,1.61
			c-0.39,0.46-0.89,0.81-1.48,1.05c-0.59,0.25-1.28,0.37-2.05,0.37H305.83z M306.49,85.15v9.07h4.14c0.57,0,1.09-0.09,1.58-0.27
			c0.48-0.18,0.89-0.46,1.24-0.83c0.34-0.37,0.61-0.85,0.8-1.43c0.19-0.58,0.29-1.25,0.29-2.01c0-1.04-0.17-1.9-0.5-2.58
			c-0.33-0.67-0.8-1.17-1.42-1.48c-0.61-0.31-1.33-0.47-2.15-0.47H306.49z"/>
		<path class="st0" d="M324.92,94.79V84.57h8.07v0.57h-7.41v4.06h7.11v0.57h-7.11v4.44h7.5v0.57H324.92z"/>
		<path class="st0" d="M341.97,91.42h0.66c0.01,2.02,1.32,3.03,3.92,3.03c0.8,0,1.45-0.1,1.96-0.3c0.51-0.2,0.88-0.47,1.11-0.82
			c0.23-0.34,0.35-0.73,0.35-1.16c0-0.39-0.08-0.71-0.23-0.96c-0.15-0.25-0.42-0.47-0.8-0.65c-0.38-0.18-0.94-0.34-1.66-0.49
			l-1.9-0.4c-0.78-0.17-1.39-0.36-1.83-0.58c-0.44-0.22-0.76-0.49-0.96-0.83c-0.2-0.34-0.3-0.76-0.3-1.27
			c0-0.51,0.15-0.97,0.44-1.37c0.29-0.4,0.74-0.71,1.32-0.94c0.58-0.23,1.28-0.34,2.1-0.34c0.67,0,1.25,0.06,1.76,0.18
			c0.51,0.12,0.95,0.31,1.32,0.56c0.38,0.26,0.67,0.58,0.87,0.98c0.2,0.4,0.31,0.86,0.33,1.39h-0.65c-0.03-0.44-0.15-0.85-0.37-1.23
			c-0.21-0.38-0.57-0.7-1.07-0.94c-0.5-0.25-1.17-0.37-2-0.37c-1.17,0-2.01,0.19-2.53,0.56c-0.52,0.38-0.78,0.88-0.78,1.53
			c0,0.38,0.07,0.7,0.2,0.94c0.13,0.24,0.38,0.45,0.73,0.62c0.35,0.17,0.85,0.32,1.49,0.45l2.11,0.41c1.08,0.21,1.88,0.51,2.39,0.91
			c0.51,0.4,0.77,1,0.77,1.78c0,0.51-0.13,0.99-0.38,1.42c-0.26,0.43-0.69,0.79-1.3,1.06c-0.62,0.28-1.42,0.41-2.42,0.41
			c-1.08,0-1.97-0.15-2.66-0.44c-0.69-0.29-1.19-0.71-1.51-1.24C342.13,92.8,341.97,92.16,341.97,91.42z"/>
		<path class="st0" d="M371.15,91.42h0.66c0.01,2.02,1.32,3.03,3.92,3.03c0.8,0,1.45-0.1,1.96-0.3c0.51-0.2,0.88-0.47,1.11-0.82
			c0.23-0.34,0.35-0.73,0.35-1.16c0-0.39-0.08-0.71-0.23-0.96c-0.15-0.25-0.42-0.47-0.8-0.65c-0.38-0.18-0.94-0.34-1.66-0.49
			l-1.9-0.4c-0.78-0.17-1.39-0.36-1.83-0.58c-0.44-0.22-0.76-0.49-0.96-0.83c-0.2-0.34-0.3-0.76-0.3-1.27
			c0-0.51,0.15-0.97,0.44-1.37c0.3-0.4,0.74-0.71,1.32-0.94c0.58-0.23,1.28-0.34,2.1-0.34c0.67,0,1.25,0.06,1.76,0.18
			c0.51,0.12,0.95,0.31,1.32,0.56c0.37,0.26,0.67,0.58,0.87,0.98c0.2,0.4,0.31,0.86,0.33,1.39h-0.65c-0.03-0.44-0.16-0.85-0.37-1.23
			c-0.21-0.38-0.57-0.7-1.07-0.94c-0.5-0.25-1.17-0.37-2-0.37c-1.17,0-2.01,0.19-2.53,0.56c-0.52,0.38-0.78,0.88-0.78,1.53
			c0,0.38,0.07,0.7,0.2,0.94c0.14,0.24,0.38,0.45,0.73,0.62c0.35,0.17,0.85,0.32,1.49,0.45l2.11,0.41c1.08,0.21,1.88,0.51,2.39,0.91
			c0.51,0.4,0.77,1,0.77,1.78c0,0.51-0.13,0.99-0.38,1.42c-0.26,0.43-0.69,0.79-1.31,1.06c-0.62,0.28-1.42,0.41-2.42,0.41
			c-1.08,0-1.97-0.15-2.66-0.44c-0.69-0.29-1.19-0.71-1.51-1.24C371.31,92.8,371.15,92.16,371.15,91.42z"/>
		<path class="st0" d="M388.94,89.68c0-0.54,0.1-1.13,0.29-1.75c0.19-0.62,0.5-1.2,0.92-1.74c0.42-0.54,0.98-0.98,1.69-1.33
			c0.71-0.35,1.55-0.52,2.53-0.52s1.81,0.17,2.52,0.52c0.71,0.34,1.28,0.79,1.7,1.33c0.42,0.54,0.73,1.12,0.91,1.73
			c0.19,0.61,0.28,1.2,0.28,1.76c0,0.56-0.09,1.14-0.28,1.75c-0.19,0.61-0.5,1.19-0.92,1.74c-0.43,0.55-0.99,1-1.7,1.34
			c-0.71,0.34-1.54,0.51-2.52,0.51s-1.81-0.17-2.52-0.52c-0.71-0.35-1.27-0.79-1.69-1.34s-0.73-1.13-0.92-1.75
			C389.04,90.8,388.94,90.22,388.94,89.68z M389.6,89.68c0,0.82,0.19,1.6,0.56,2.34c0.38,0.73,0.92,1.32,1.65,1.76
			c0.72,0.44,1.58,0.66,2.55,0.66c0.97,0,1.82-0.22,2.55-0.66c0.72-0.44,1.28-1.03,1.65-1.77c0.38-0.73,0.57-1.52,0.57-2.34
			c0-0.62-0.11-1.22-0.31-1.79c-0.21-0.57-0.52-1.08-0.92-1.53c-0.4-0.45-0.91-0.8-1.51-1.06c-0.61-0.26-1.28-0.39-2.02-0.39
			c-0.74,0-1.41,0.13-2.01,0.39c-0.6,0.26-1.1,0.61-1.52,1.06c-0.41,0.45-0.72,0.96-0.93,1.53C389.7,88.46,389.6,89.06,389.6,89.68z
			"/>
		<path class="st0" d="M409.29,94.79V84.57h0.66v9.64h6.7v0.57H409.29z"/>
		<path class="st0" d="M425.65,91.01v-6.44h0.66v6.41c0,0.57,0.07,1.06,0.21,1.49c0.14,0.42,0.36,0.78,0.66,1.07
			c0.3,0.29,0.7,0.52,1.2,0.67c0.5,0.16,1.1,0.23,1.79,0.23c0.69,0,1.29-0.08,1.79-0.23c0.5-0.16,0.9-0.38,1.2-0.67
			c0.3-0.29,0.52-0.65,0.66-1.07c0.14-0.42,0.21-0.91,0.21-1.49v-6.41h0.66v6.44c0,0.88-0.17,1.62-0.51,2.21
			c-0.34,0.59-0.84,1.04-1.52,1.35c-0.67,0.3-1.51,0.45-2.5,0.45s-1.82-0.15-2.5-0.45c-0.67-0.3-1.18-0.75-1.52-1.35
			C425.82,92.63,425.65,91.89,425.65,91.01z"/>
		<path class="st0" d="M453.92,90.91h0.66c-0.06,0.51-0.21,1.01-0.46,1.49c-0.25,0.49-0.58,0.93-1,1.32
			c-0.42,0.39-0.93,0.71-1.54,0.94c-0.61,0.24-1.28,0.36-2.01,0.36c-1.04,0-1.97-0.21-2.8-0.63c-0.83-0.42-1.47-1.04-1.94-1.85
			c-0.47-0.81-0.7-1.76-0.7-2.85c0-0.87,0.2-1.71,0.6-2.53c0.4-0.82,1.01-1.5,1.83-2.02c0.82-0.53,1.82-0.79,3.01-0.79
			c0.63,0,1.21,0.07,1.73,0.21c0.53,0.14,1,0.36,1.42,0.65c0.42,0.29,0.78,0.65,1.07,1.09c0.29,0.44,0.5,0.93,0.62,1.48h-0.66
			c-0.15-0.62-0.44-1.15-0.86-1.58c-0.42-0.44-0.91-0.76-1.49-0.96c-0.58-0.21-1.19-0.31-1.85-0.31c-0.94,0-1.77,0.21-2.5,0.64
			c-0.73,0.43-1.29,1.01-1.69,1.73c-0.39,0.73-0.59,1.52-0.59,2.39c0,0.64,0.1,1.25,0.3,1.82c0.2,0.57,0.51,1.08,0.92,1.53
			c0.41,0.45,0.92,0.8,1.52,1.05c0.6,0.25,1.28,0.37,2.03,0.37c1.15,0,2.11-0.32,2.9-0.95S453.73,92.01,453.92,90.91z"/>
		<path class="st0" d="M464.18,94.79V84.57h0.66v10.22H464.18z"/>
		<path class="st0" d="M474.35,89.68c0-0.54,0.1-1.13,0.29-1.75c0.19-0.62,0.5-1.2,0.92-1.74c0.42-0.54,0.98-0.98,1.69-1.33
			c0.71-0.35,1.55-0.52,2.53-0.52c0.97,0,1.81,0.17,2.53,0.52c0.71,0.34,1.28,0.79,1.7,1.33c0.42,0.54,0.73,1.12,0.91,1.73
			c0.19,0.61,0.28,1.2,0.28,1.76c0,0.56-0.09,1.14-0.28,1.75c-0.19,0.61-0.5,1.19-0.92,1.74c-0.43,0.55-0.99,1-1.7,1.34
			c-0.71,0.34-1.54,0.51-2.52,0.51c-0.97,0-1.81-0.17-2.52-0.52c-0.71-0.35-1.27-0.79-1.69-1.34c-0.42-0.54-0.73-1.13-0.92-1.75
			C474.44,90.8,474.35,90.22,474.35,89.68z M475,89.68c0,0.82,0.19,1.6,0.56,2.34c0.38,0.73,0.93,1.32,1.65,1.76
			c0.72,0.44,1.58,0.66,2.55,0.66c0.97,0,1.82-0.22,2.55-0.66c0.72-0.44,1.27-1.03,1.65-1.77c0.38-0.73,0.57-1.52,0.57-2.34
			c0-0.62-0.11-1.22-0.31-1.79c-0.21-0.57-0.52-1.08-0.92-1.53c-0.4-0.45-0.91-0.8-1.51-1.06c-0.61-0.26-1.28-0.39-2.02-0.39
			s-1.41,0.13-2.01,0.39c-0.6,0.26-1.1,0.61-1.52,1.06c-0.41,0.45-0.72,0.96-0.93,1.53C475.11,88.46,475,89.06,475,89.68z"/>
		<path class="st0" d="M494.69,94.79V84.57h0.83l7.63,9.3h0.03v-9.3h0.66v10.22h-0.82l-7.64-9.3h-0.03v9.3H494.69z"/>
		<path class="st0" d="M513.78,94.79V84.57h8.07v0.57h-7.42v4.06h7.11v0.57h-7.11v4.44h7.5v0.57H513.78z"/>
		<path class="st0" d="M530.83,91.42h0.66c0.01,2.02,1.32,3.03,3.92,3.03c0.8,0,1.45-0.1,1.96-0.3c0.51-0.2,0.88-0.47,1.11-0.82
			c0.23-0.34,0.35-0.73,0.35-1.16c0-0.39-0.08-0.71-0.23-0.96c-0.15-0.25-0.42-0.47-0.8-0.65c-0.38-0.18-0.94-0.34-1.66-0.49
			l-1.9-0.4c-0.78-0.17-1.39-0.36-1.83-0.58c-0.44-0.22-0.76-0.49-0.96-0.83c-0.2-0.34-0.3-0.76-0.3-1.27
			c0-0.51,0.15-0.97,0.44-1.37c0.3-0.4,0.74-0.71,1.32-0.94c0.58-0.23,1.28-0.34,2.1-0.34c0.67,0,1.25,0.06,1.76,0.18
			c0.51,0.12,0.95,0.31,1.32,0.56c0.37,0.26,0.66,0.58,0.87,0.98c0.2,0.4,0.31,0.86,0.33,1.39h-0.65c-0.03-0.44-0.16-0.85-0.37-1.23
			c-0.21-0.38-0.57-0.7-1.07-0.94c-0.5-0.25-1.17-0.37-2-0.37c-1.17,0-2.01,0.19-2.53,0.56c-0.52,0.38-0.78,0.88-0.78,1.53
			c0,0.38,0.07,0.7,0.2,0.94c0.14,0.24,0.38,0.45,0.73,0.62c0.35,0.17,0.85,0.32,1.49,0.45l2.11,0.41c1.08,0.21,1.88,0.51,2.39,0.91
			c0.51,0.4,0.77,1,0.77,1.78c0,0.51-0.13,0.99-0.38,1.42c-0.26,0.43-0.69,0.79-1.31,1.06c-0.62,0.28-1.42,0.41-2.42,0.41
			c-1.08,0-1.97-0.15-2.66-0.44c-0.69-0.29-1.19-0.71-1.51-1.24C530.99,92.8,530.83,92.16,530.83,91.42z"/>
	</g>
	<g>
		<path class="st0" d="M25.67,44.53h65.45V34.17H25.67l0.09-15.38h66.87c1.35,0,2.85,0.45,4.49,1.33c1.64,0.89,3.15,2.01,4.54,3.37
			c1.39,1.35,2.54,2.85,3.47,4.49c0.93,1.64,1.39,3.17,1.39,4.59v14.21c0,1.43-0.5,2.9-1.49,4.43c-1,1.53-2.24,2.92-3.74,4.16
			c-1.5,1.25-3.1,2.26-4.81,3.04c-1.71,0.79-3.24,1.18-4.59,1.18H41.35v16.45h-15.6L25.67,44.53z"/>
		<path class="st0" d="M130.53,76.04c-1.42,0-2.96-0.41-4.59-1.23c-1.64-0.82-3.15-1.9-4.54-3.26c-1.38-1.35-2.53-2.88-3.42-4.59
			c-0.89-1.71-1.33-3.49-1.33-5.34V18.79h15.38v41.87h34.71v15.38H130.53z"/>
		<path class="st0" d="M278.33,30.43c0-1.71,0.39-3.28,1.17-4.7c0.78-1.42,1.83-2.67,3.15-3.74c1.32-1.07,2.86-1.88,4.64-2.46
			c1.78-0.57,3.67-0.85,5.66-0.85h0.75c2.28,0,4.65,0.41,7.1,1.23c2.46,0.82,4.39,2.19,5.82,4.11l34.39,34.82V18.79h15.49V64.4
			c0,1.71-0.39,3.29-1.18,4.75c-0.78,1.46-1.83,2.69-3.15,3.69c-1.32,1-2.88,1.78-4.7,2.35c-1.82,0.57-3.72,0.85-5.72,0.85
			c-2.71,0-5.31-0.71-7.8-2.13c-2.49-1.43-4.66-3.31-6.52-5.66L294.14,34.6c-0.14-0.07-0.25-0.11-0.32-0.11v41.55h-15.49V30.43z"/>
	</g>
	<g>
		<path class="st1" d="M375.49,74.55c-1.46-1-2.88-2.19-4.27-3.58c-1.39-1.39-2.58-2.87-3.58-4.43c-1-1.57-1.49-2.88-1.49-3.95
			V31.82c0-1.21,0.48-2.58,1.44-4.11c0.96-1.53,2.15-2.95,3.58-4.27c1.42-1.31,2.94-2.42,4.54-3.31c1.6-0.89,3.04-1.33,4.33-1.33
			h52.77c1.35,0,2.83,0.41,4.43,1.23c1.6,0.82,3.1,1.87,4.48,3.15c1.39,1.28,2.56,2.69,3.52,4.22c0.96,1.53,1.45,3.01,1.45,4.43
			v31.51c0,1-0.5,2.23-1.5,3.69c-1,1.46-2.21,2.87-3.63,4.22c-1.43,1.35-2.88,2.49-4.38,3.42c-1.5,0.93-2.71,1.39-3.63,1.39h-54.37
			C378.18,76.04,376.95,75.55,375.49,74.55z M431.31,60.66V34.17h-49.78v26.49H431.31z"/>
		<path class="st1" d="M456.78,18.79h15.81v19.33l37.6-19.33h29.48l-53.19,28.3l53.19,28.95h-29.48l-37.6-19.76v19.76h-15.81V18.79z
			"/>
	</g>
	<g id="layer1_25_">
		<path id="path3347_25_" class="st2" d="M218.02,77.88c-0.26-0.29,0.33-0.91,0.86-0.92c0.33,0,0.38,0.19,0.13,0.53
			C218.69,77.93,218.23,78.11,218.02,77.88z M181.11,77.45c-0.16-0.16-0.13-0.19,0.19-0.17c0.45,0.03,0.57,0.28,0.13,0.28
			C181.29,77.56,181.18,77.52,181.11,77.45z M198.87,77.29c-0.19-0.06-0.37-0.24-0.43-0.42c-0.09-0.29,0.58-0.63,1.41-0.74
			c0.56-0.07,1.04,0.13,1.04,0.44c0,0.19-0.31,0.46-0.69,0.61C199.86,77.31,199.15,77.37,198.87,77.29L198.87,77.29z M213.44,76.97
			c-0.1-0.06-0.21-0.18-0.25-0.26c-0.08-0.15-0.07-0.17,0.07-0.4c0.27-0.42,0.84-0.74,1.33-0.74c0.3,0,0.42,0.06,0.49,0.27
			c0.08,0.22,0,0.38-0.36,0.71c-0.31,0.29-0.75,0.53-0.96,0.53C213.67,77.07,213.53,77.02,213.44,76.97L213.44,76.97z M188.04,76.8
			c-0.24-0.07-0.48-0.3-0.48-0.45c0-0.18,0.21-0.24,0.8-0.24c0.67,0,1.06,0.12,1.06,0.32C189.41,76.71,188.53,76.94,188.04,76.8z
			 M247.73,75.23c-0.35-0.48-3.64-5.05-7.33-10.16l-6.69-9.28l-0.15,0.32c-0.21,0.43-0.66,0.89-0.92,0.94
			c-0.17,0.03-0.22,0.02-0.34-0.1c-0.32-0.32-0.06-1.26,0.5-1.82l0.25-0.25l-0.69-0.96c-0.38-0.53-0.81-1.13-0.96-1.35
			c-0.24-0.35-0.29-0.39-0.45-0.39c-0.1,0-0.22-0.03-0.28-0.05c-0.12-0.07-0.22-0.33-0.22-0.62c0-0.21-0.05-0.31-0.54-0.99
			c-0.3-0.42-0.55-0.75-0.56-0.75c-0.01,0-0.08,0.11-0.16,0.25c-0.54,0.93-1.38,1.19-1.73,0.54c-0.13-0.24-0.13-0.93,0.01-1.36
			c0.06-0.18,0.23-0.51,0.38-0.73l0.28-0.41l-0.88-1.23c-0.49-0.67-0.92-1.27-0.97-1.32c-0.05-0.05-0.16-0.1-0.26-0.1
			c-0.33,0-0.67-0.53-0.67-1.05c0-0.13-0.11-0.33-0.45-0.8l-0.45-0.63l-0.16,0.34c-0.48,1-1.35,1.67-1.94,1.49
			c-0.71-0.21-1.02-1.07-0.76-2.1c0.16-0.64,0.49-1.27,0.88-1.69l0.32-0.35l-0.75-1.04c-0.57-0.79-0.77-1.03-0.85-1.02
			c-0.06,0.01-0.19,0.03-0.3,0.05c-0.48,0.08-0.89-0.18-1.12-0.69c-0.11-0.25-0.13-0.37-0.13-0.98c-0.01-0.57-0.03-0.73-0.1-0.85
			c-0.05-0.08-0.11-0.14-0.13-0.14c-0.02,0-0.07,0.1-0.11,0.22c-0.17,0.57-0.77,1.5-1.16,1.79c-0.44,0.34-0.94,0.45-1.27,0.28
			c-0.24-0.12-0.52-0.49-0.63-0.82c-0.16-0.49-0.13-1.61,0.05-2.24c0.2-0.66,0.57-1.4,0.87-1.73l0.25-0.27l-0.63-0.88
			c-0.35-0.48-0.63-0.88-0.64-0.89c0-0.01-0.09,0.03-0.18,0.07c-0.25,0.12-0.65,0.08-0.88-0.11c-0.39-0.3-0.68-1.23-0.6-1.92
			c0.04-0.3,0.03-0.32-0.17-0.58l-0.2-0.27l-0.12,0.47c-0.32,1.28-0.84,2-1.44,2c-0.26,0-0.52-0.23-0.69-0.61
			c-0.12-0.25-0.13-0.36-0.13-0.98c0-0.56,0.03-0.79,0.12-1.13c0.18-0.63,0.37-1.1,0.58-1.46c0.16-0.27,0.18-0.33,0.12-0.42
			c-0.04-0.06-0.39-0.56-0.79-1.11l-0.73-1.01l-0.15,0.11c-0.46,0.33-0.8-0.07-0.85-1l-0.03-0.54l-0.35-0.47
			c-0.19-0.26-0.35-0.47-0.36-0.47s0,0.07,0.01,0.16c0.04,0.25-0.09,1.07-0.23,1.47c-0.33,0.95-0.81,1-0.88,0.09
			c-0.03-0.42,0.1-1.28,0.26-1.79c0.11-0.34,0.33-0.68,0.43-0.68c0.03,0,0.61-0.24,1.29-0.54c1.71-0.75,3.1-1.18,4.86-1.52
			c1.45-0.28,1.94-0.32,3.6-0.32c1.63,0,2.49,0.07,3.9,0.3c4.12,0.68,7.23,2.25,9,4.56c0.21,0.27,36.89,52.19,36.98,52.35
			c0.03,0.05-1.99,0.07-10.07,0.07h-10.11L247.73,75.23L247.73,75.23z M208.72,75.77c-0.39-0.22-0.48-0.5-0.3-0.88
			c0.26-0.53,1.24-1.02,1.92-0.95c0.26,0.03,0.5,0.28,0.5,0.53c0,0.46-0.35,0.88-0.96,1.17C209.5,75.82,208.9,75.89,208.72,75.77
			L208.72,75.77z M194.15,75.08c-0.96-0.14-1.24-0.74-0.5-1.09c0.6-0.29,1.88-0.38,2.38-0.17c0.6,0.25,0.6,0.71,0,1.02
			C195.6,75.04,194.71,75.16,194.15,75.08L194.15,75.08z M203.71,74.22c-0.09-0.03-0.25-0.12-0.34-0.21
			c-0.22-0.22-0.23-0.52-0.02-0.79c0.27-0.35,1.08-0.79,1.75-0.95c0.6-0.14,0.95-0.08,1.29,0.22c0.18,0.16,0.21,0.22,0.21,0.42
			c0,0.37-0.29,0.68-0.93,1.01C205.05,74.22,204.18,74.35,203.71,74.22L203.71,74.22z M175.96,73.85c-0.43-0.14-0.62-0.34-0.39-0.41
			c0.25-0.08,1.11,0.21,1.17,0.38C176.79,73.97,176.36,73.99,175.96,73.85z M183.07,73.83c-0.38-0.1-0.66-0.24-0.78-0.4
			c-0.28-0.36,0.04-0.52,0.95-0.48c0.32,0.02,0.72,0.06,0.89,0.09c0.74,0.16,1.08,0.54,0.66,0.75
			C184.57,73.89,183.42,73.92,183.07,73.83L183.07,73.83z M229.78,73.64c-0.15-0.1-0.19-0.27-0.1-0.5c0.11-0.27,0.57-0.7,0.76-0.7
			c0.13,0,0.13,0.01,0.11,0.23c-0.04,0.3-0.24,0.71-0.44,0.87C229.96,73.69,229.88,73.71,229.78,73.64z M225.63,73.49
			c-0.26-0.22-0.2-0.56,0.19-1.03c0.56-0.69,1.34-0.74,1.23-0.08c-0.04,0.26-0.48,0.9-0.75,1.1
			C226.04,73.67,225.84,73.67,225.63,73.49z M221.45,73.33c-0.21-0.1-0.29-0.28-0.29-0.59c0-0.47,0.45-1.08,1.05-1.43
			c0.56-0.33,0.99-0.13,0.99,0.45C223.2,72.63,222.07,73.64,221.45,73.33z M233.65,73.23c-0.02-0.04,0.02-0.15,0.09-0.24
			c0.09-0.13,0.13-0.15,0.19-0.1c0.04,0.03,0.07,0.08,0.06,0.1C233.84,73.31,233.72,73.4,233.65,73.23z M189.58,72.79
			c-1.28-0.2-1.82-0.97-0.94-1.33c0.6-0.25,2.03-0.3,2.67-0.1c0.48,0.15,0.72,0.35,0.72,0.61c0,0.1-0.04,0.23-0.08,0.3
			c-0.1,0.15-0.44,0.33-0.8,0.42C190.85,72.77,189.85,72.83,189.58,72.79L189.58,72.79z M217.1,72.66c-0.91-0.2-0.61-1.32,0.58-2.16
			c0.63-0.44,1.09-0.52,1.47-0.23c0.47,0.35,0.31,1.03-0.39,1.69C218.23,72.46,217.52,72.76,217.1,72.66L217.1,72.66z M199.17,72.54
			c-0.55-0.15-0.85-0.49-0.78-0.88c0.15-0.8,2.34-1.61,3.32-1.23c0.53,0.21,0.68,0.68,0.37,1.17
			C201.65,72.28,200.09,72.78,199.17,72.54z M212.52,71.66c-0.6-0.3-0.57-1.04,0.05-1.72c0.99-1.06,2.23-1.37,2.68-0.66
			c0.15,0.23,0.12,0.72-0.05,1.09c-0.19,0.39-0.73,0.9-1.23,1.14c-0.36,0.18-0.47,0.21-0.84,0.22
			C212.81,71.75,212.65,71.73,212.52,71.66z M178.65,70.92c-0.67-0.13-1.35-0.39-1.58-0.62c-0.06-0.06-0.11-0.17-0.11-0.24
			c0-0.22,0.17-0.27,0.89-0.27c1.59,0.02,3.06,0.62,2.61,1.06c-0.1,0.1-0.18,0.12-0.77,0.12C179.32,70.99,178.87,70.96,178.65,70.92
			z M194.49,70.6c-0.83-0.19-1.16-0.63-0.85-1.1c0.15-0.23,0.71-0.6,1.17-0.78c0.97-0.38,2.2-0.5,2.79-0.28
			c0.82,0.3,0.81,0.88-0.03,1.44C196.68,70.48,195.32,70.79,194.49,70.6L194.49,70.6z M208.1,70.51c-0.22-0.09-0.48-0.31-0.57-0.48
			c-0.27-0.53,0.26-1.36,1.27-1.98c0.84-0.52,1.79-0.7,2.23-0.43c0.62,0.39,0.53,1.17-0.25,1.93c-0.65,0.64-1.36,0.98-2.1,1.01
			C208.44,70.56,208.17,70.54,208.1,70.51L208.1,70.51z M171.44,70.34c-0.47-0.07-0.89-0.24-1.09-0.43
			c-0.24-0.24-0.2-0.34,0.17-0.33c0.46,0.02,1.63,0.42,1.75,0.61C172.36,70.35,171.97,70.42,171.44,70.34z M184.91,70.35
			c-0.66-0.08-1.27-0.31-1.53-0.57c-0.2-0.2-0.18-0.47,0.05-0.63c0.4-0.3,1.61-0.47,2.64-0.37c0.99,0.1,1.49,0.31,1.67,0.69
			c0.09,0.18,0.08,0.2-0.01,0.33c-0.14,0.19-0.51,0.37-0.96,0.46C186.29,70.37,185.37,70.41,184.91,70.35L184.91,70.35z
			 M203.62,69.22c-0.47-0.14-0.74-0.47-0.74-0.92c0-0.5,0.33-0.98,1-1.43c1.43-0.97,2.93-1.01,3.28-0.1
			c0.31,0.82-0.69,1.94-2.14,2.38C204.63,69.28,203.92,69.31,203.62,69.22L203.62,69.22z M189.94,68.71
			c-0.59-0.16-0.85-0.39-0.85-0.74c0-0.42,0.45-0.81,1.26-1.08c1.26-0.43,2.66-0.46,3.33-0.08c1.04,0.59,0.12,1.57-1.79,1.9
			C191.29,68.81,190.32,68.81,189.94,68.71L189.94,68.71z M163.01,68.39c-0.09-0.04-0.2-0.13-0.23-0.19
			c-0.06-0.11-0.05-0.12,0.07-0.09c0.23,0.06,0.51,0.19,0.58,0.28c0.06,0.07,0.05,0.08-0.08,0.08
			C163.25,68.47,163.1,68.43,163.01,68.39z M224.35,68.38c-0.06-0.01-0.18-0.1-0.27-0.18c-0.42-0.44-0.1-1.57,0.68-2.36
			c0.71-0.73,1.51-0.83,1.76-0.23c0.36,0.86-0.84,2.64-1.87,2.77C224.55,68.39,224.42,68.39,224.35,68.38z M228.44,68.31
			c-0.35-0.14-0.42-0.74-0.14-1.3c0.32-0.66,0.91-1.17,1.32-1.17c0.17,0,0.21,0.03,0.3,0.17c0.32,0.53-0.15,1.75-0.86,2.2
			C228.82,68.36,228.65,68.39,228.44,68.31z M174.76,68.17c-1.31-0.22-2.51-0.77-2.46-1.15c0.03-0.29,0.41-0.34,1.35-0.2
			c1.23,0.19,2.17,0.49,2.55,0.81c0.42,0.36,0.24,0.56-0.52,0.59C175.43,68.24,175.02,68.22,174.76,68.17L174.76,68.17z
			 M180.71,67.93c-1.39-0.13-2.41-0.7-1.97-1.09c0.28-0.26,1.23-0.39,2.45-0.34c1.41,0.05,2.27,0.27,2.59,0.64
			c0.12,0.14,0.13,0.17,0.06,0.27c-0.11,0.18-0.52,0.36-0.99,0.44C182.27,67.95,181.29,67.99,180.71,67.93z M220.03,67.86
			c-0.54-0.37-0.57-1.01-0.07-1.87c0.29-0.5,1.03-1.23,1.47-1.44c0.48-0.24,0.68-0.26,0.98-0.13c0.34,0.15,0.46,0.37,0.47,0.79
			c0,0.64-0.44,1.51-1.09,2.13C221.18,67.94,220.46,68.15,220.03,67.86L220.03,67.86z M232.18,67.9c-0.19-0.23,0.12-1.01,0.53-1.33
			c0.23-0.18,0.34-0.18,0.52-0.03c0.13,0.12,0.14,0.13,0.08,0.4c-0.07,0.33-0.29,0.65-0.6,0.88C232.46,68,232.29,68.03,232.18,67.9z
			 M199.18,67.75c-0.86-0.27-1.01-1.03-0.35-1.76c0.6-0.67,2.13-1.34,3.05-1.33c1.3,0,1.82,0.83,1.11,1.77
			c-0.35,0.46-1.43,1.09-2.23,1.29C200.27,67.84,199.54,67.85,199.18,67.75L199.18,67.75z M236.01,67.33
			c-0.09-0.09-0.07-0.18,0.08-0.36c0.23-0.28,0.4-0.2,0.27,0.12C236.26,67.31,236.1,67.42,236.01,67.33z M215.97,67.13
			c-1.02-0.46-0.73-1.95,0.61-3.05c1-0.83,1.99-0.88,2.38-0.12c0.09,0.18,0.11,0.29,0.09,0.66c-0.02,0.38-0.05,0.5-0.22,0.84
			c-0.36,0.71-1.17,1.46-1.83,1.68C216.67,67.26,216.24,67.25,215.97,67.13L215.97,67.13z M167.35,67.01
			c-1.09-0.29-2.12-0.88-1.97-1.12c0.09-0.15,0.88,0.02,1.87,0.4c0.78,0.3,1.15,0.58,1,0.75C168.17,67.15,167.83,67.14,167.35,67.01
			z M185.9,66.91c-1.02-0.16-1.51-0.64-1.12-1.11c0.66-0.78,3.85-1.19,4.93-0.63c0.45,0.23,0.56,0.63,0.25,0.93
			c-0.31,0.31-0.85,0.53-1.76,0.7C187.55,66.93,186.4,66.98,185.9,66.91z M211.74,66.32c-1.07-0.32-1-1.53,0.16-2.74
			c0.46-0.48,0.99-0.88,1.45-1.08c0.39-0.17,1.01-0.2,1.32-0.06c0.82,0.36,0.83,1.55,0.03,2.52
			C213.94,65.88,212.49,66.54,211.74,66.32L211.74,66.32z M195.07,66.27c-0.41-0.07-0.83-0.29-0.96-0.5
			c-0.34-0.54,0.17-1.17,1.48-1.81c1.06-0.52,1.89-0.76,2.68-0.76c1.54,0,1.64,1.31,0.19,2.28c-0.52,0.35-0.92,0.52-1.55,0.68
			C196.41,66.29,195.48,66.34,195.07,66.27L195.07,66.27z M177.26,65.72c-1.11-0.1-2.22-0.39-2.55-0.67
			c-0.39-0.33-0.06-0.5,1.03-0.54c1.17-0.04,2.83,0.12,3.61,0.36c0.61,0.19,0.83,0.54,0.46,0.72
			C179.41,65.77,178.4,65.82,177.26,65.72z M171.32,65.48c-1.35-0.21-2.74-0.68-3.21-1.07c-0.52-0.44,0.18-0.51,1.76-0.19
			c1.39,0.29,2.32,0.59,2.65,0.87C173.03,65.5,172.53,65.67,171.32,65.48L171.32,65.48z M207.41,65.31
			c-0.53-0.19-0.73-0.48-0.7-1.03c0.04-0.64,0.5-1.37,1.28-2.02c0.72-0.61,1.5-0.98,2.15-1.03c0.47-0.04,0.77,0.05,1.02,0.31
			c0.39,0.39,0.39,1.04-0.01,1.71C210.28,64.68,208.47,65.68,207.41,65.31z M181.9,65.03c-0.35-0.06-0.73-0.2-0.94-0.32
			c-0.37-0.22-0.15-0.53,0.52-0.75c0.69-0.23,2.24-0.43,3.28-0.43c0.67,0,1.06,0.06,1.38,0.22c0.71,0.34,0,0.86-1.64,1.18
			C183.87,65.05,182.35,65.11,181.9,65.03L181.9,65.03z M191.04,64.81c-0.53-0.08-0.95-0.32-1.04-0.59
			c-0.16-0.51,0.78-1.19,2.47-1.77c1.58-0.54,2.7-0.57,3.2-0.08c0.16,0.16,0.18,0.21,0.16,0.4c-0.04,0.27-0.24,0.54-0.63,0.82
			C194.09,64.41,192.15,64.98,191.04,64.81L191.04,64.81z M159.16,64.48c-0.39-0.08-1.1-0.52-1.04-0.64
			c0.04-0.06,0.37,0.04,0.73,0.22C159.4,64.34,159.57,64.57,159.16,64.48z M203.44,64.17c-0.34-0.07-0.64-0.25-0.81-0.46
			c-0.2-0.26-0.2-0.63-0.02-1.01c0.45-0.92,1.82-2.03,3.01-2.43c0.44-0.15,1.19-0.14,1.49,0.02c0.73,0.38,0.74,1.16,0.02,2.22
			c-0.46,0.68-1.45,1.35-2.33,1.58C204.39,64.19,203.73,64.23,203.44,64.17L203.44,64.17z M164.09,64.02
			c-1.07-0.24-3.04-1.19-3.04-1.47c0-0.24,0.73-0.08,2.04,0.44c0.92,0.37,1.39,0.62,1.51,0.82c0.05,0.09,0.09,0.18,0.07,0.21
			C164.65,64.06,164.28,64.07,164.09,64.02z M174.28,63.86c-1.21-0.12-2.01-0.27-2.45-0.47c-0.31-0.14-0.36-0.25-0.17-0.36
			c0.17-0.1,1.44-0.08,2.29,0.03c0.37,0.04,0.68,0.06,0.7,0.04c0.04-0.06,0.41-0.12,0.46-0.07c0.02,0.02-0.05,0.07-0.17,0.1
			l-0.21,0.06l0.27,0.04c0.6,0.09,1.05,0.36,0.87,0.51C175.72,63.86,174.93,63.93,174.28,63.86z M178.69,63.47
			c-0.49-0.06-0.93-0.21-0.96-0.33c-0.04-0.21,0.64-0.37,2.03-0.48c1.54-0.12,2.69-0.01,2.69,0.24
			C182.45,63.25,179.99,63.62,178.69,63.47z M187.16,63.47c-0.48-0.1-0.78-0.3-0.78-0.5c0-0.17,0.4-0.5,0.88-0.73
			c0.88-0.42,2.43-0.87,3.34-0.97c0.29-0.03,0.58-0.08,0.63-0.11c0.08-0.04,0.1-0.04,0.1,0.02c0,0.04,0.07,0.09,0.16,0.11
			c0.26,0.06,0.43,0.23,0.43,0.42c0,0.63-1.13,1.35-2.64,1.69C188.82,63.49,187.48,63.54,187.16,63.47L187.16,63.47z M183.47,63.23
			c0-0.08,0.28-0.22,0.39-0.18c0.04,0.02-0.01,0.07-0.12,0.14C183.52,63.33,183.47,63.33,183.47,63.23z M167.75,63.12
			c-1.41-0.26-2.98-0.89-2.98-1.19c0-0.19,1.14,0.02,2.58,0.47c0.87,0.28,1.46,0.6,1.33,0.73C168.6,63.2,168.14,63.19,167.75,63.12z
			 M199.24,63.07c-0.3-0.09-0.59-0.32-0.7-0.54c-0.28-0.58,0.49-1.65,1.81-2.53c0.6-0.4,0.91-0.54,1.67-0.78
			c0.31-0.09,0.58-0.18,0.6-0.19c0.02-0.01-0.01-0.07-0.07-0.13c-0.26-0.26-0.27-0.77-0.02-1.41c0.02-0.06-0.11,0-0.39,0.19
			c-0.43,0.29-0.87,0.48-1.56,0.69l-0.39,0.12l0.11,0.21c0.22,0.43,0.04,0.92-0.6,1.56c-0.93,0.93-2.49,1.68-3.63,1.75
			c-0.6,0.04-0.9-0.04-1.14-0.28c-0.35-0.35-0.2-0.82,0.46-1.48c0.76-0.76,2.15-1.57,3.19-1.86l0.51-0.14L199,58.12
			c-0.16-0.17-0.12-0.65,0.11-1.12c0.09-0.2,0.17-0.38,0.17-0.39c0-0.01-0.14,0.08-0.31,0.21c-0.38,0.29-0.88,0.59-1.21,0.73
			c-0.16,0.07-0.28,0.16-0.33,0.27c-0.12,0.24-0.21,0.27-0.18,0.07c0.02-0.16,0.02-0.16-0.14-0.13c-0.31,0.07-0.8,0.04-0.95-0.06
			c-0.62-0.41-0.07-1.37,1.51-2.64c0.79-0.63,1.48-1.07,1.96-1.24l0.27-0.09l-0.13-0.13c-0.12-0.12-0.13-0.17-0.11-0.47
			c0.02-0.26,0.07-0.44,0.23-0.77l0.21-0.43l-0.49,0.46c-0.79,0.76-1.61,1.24-2.16,1.29c-0.37,0.03-0.46-0.04-0.43-0.33
			c0.08-0.59,1.59-2.46,2.57-3.19c1.11-0.82,1.79-0.62,1.37,0.41l-0.12,0.29l0.59-0.59c0.33-0.33,0.8-0.75,1.06-0.93
			c0.41-0.3,0.46-0.35,0.39-0.42c-0.04-0.04-0.09-0.14-0.11-0.21c-0.05-0.21,0.02-0.82,0.14-1.17c0.09-0.27,0.1-0.3,0.02-0.19
			c-0.85,1.22-2.23,2.22-2.58,1.87c-0.26-0.26,0.22-1.47,1.12-2.82c0.76-1.14,1.46-1.83,1.96-1.93c0.41-0.08,0.58,0.27,0.45,0.9
			c-0.08,0.36-0.08,0.38,0.01,0.26c0.56-0.85,1.16-1.51,1.63-1.78l0.37-0.22l-0.14-0.11c-0.2-0.15-0.29-0.41-0.29-0.79
			c0-1.12,0.91-3.22,1.79-4.13c0.68-0.71,1.22-0.65,1.38,0.14c0.17,0.8-0.34,2.43-1.13,3.64c-0.32,0.49-0.86,1.04-1.12,1.15
			l-0.17,0.07l0.17,0.08c0.24,0.12,0.32,0.31,0.32,0.8c0,0.58,0.04,0.62,0.29,0.25c0.12-0.17,0.46-0.54,0.76-0.82l0.55-0.52
			l-0.09-0.21c-0.14-0.31-0.12-1.26,0.03-1.82c0.29-1.06,0.86-2.2,1.42-2.8c0.52-0.56,1.02-0.73,1.43-0.5
			c0.38,0.21,0.56,0.65,0.57,1.35l0,0.46l0.22-0.39c0.46-0.82,0.89-1.27,1.43-1.53l0.3-0.14l-0.21-0.2
			c-0.8-0.79-0.53-3.11,0.54-4.64c0.36-0.51,0.76-0.79,1.18-0.81c0.38-0.03,0.6,0.1,0.83,0.47c0.79,1.29-0.15,4.49-1.52,5.15
			l-0.25,0.12l0.2,0.21c0.27,0.28,0.41,0.74,0.46,1.47l0.04,0.56l0.31-0.47c0.7-1.06,1.48-1.5,2.1-1.19
			c0.51,0.26,0.75,0.8,0.75,1.66c0,1.49-1.02,3.47-2.03,3.96l-0.21,0.1l0.18,0.27c0.32,0.48,0.41,1.21,0.26,2.08l-0.03,0.18
			l0.15-0.24c0.77-1.25,1.81-1.91,2.48-1.57c0.53,0.27,0.79,0.81,0.79,1.59c-0.01,0.78-0.26,1.55-0.79,2.36
			c-0.56,0.85-1.19,1.31-1.89,1.37c-0.3,0.03-0.39,0.01-0.64-0.11c-0.19-0.09-0.34-0.22-0.45-0.37c-0.15-0.22-0.15-0.23-0.15-1.02
			l0-0.8l-0.16,0.28c-0.22,0.38-0.68,0.86-1.22,1.28c-0.25,0.19-0.46,0.36-0.47,0.36c-0.01,0,0.04,0.11,0.11,0.24
			c0.11,0.21,0.12,0.32,0.12,1l0,0.77l0.44-0.45c0.77-0.78,1.32-1.09,1.91-1.04c0.41,0.03,0.7,0.23,0.93,0.63
			c0.16,0.29,0.17,0.32,0.16,0.94c0,0.59-0.02,0.69-0.17,1.12c-0.43,1.2-1.4,2.3-2.31,2.62c-0.34,0.12-0.92,0.13-1.17,0.03
			c-0.51-0.21-0.79-0.71-0.8-1.38c0-0.23,0.02-0.47,0.04-0.54c0.03-0.09-0.04-0.03-0.18,0.15c-0.33,0.41-0.76,0.73-1.46,1.07
			c-0.34,0.17-0.62,0.31-0.63,0.32c-0.01,0.01,0.05,0.13,0.13,0.28c0.14,0.23,0.15,0.31,0.15,0.74c0,0.4-0.03,0.54-0.14,0.81
			c-0.4,0.95-1.45,2.03-2.47,2.55c-0.48,0.24-0.86,0.35-1.27,0.35c-0.32,0-0.42-0.02-0.63-0.14c-0.25-0.15-0.43-0.38-0.49-0.64
			c-0.02-0.08,0-0.33,0.05-0.56c0.12-0.65,0.13-0.65-0.26-0.34c-0.6,0.48-1.61,0.92-2.14,0.92h-0.15l0.15,0.22
			c0.13,0.2,0.15,0.27,0.15,0.66c0,0.38-0.02,0.47-0.16,0.73c-0.49,0.89-1.83,1.85-3,2.15C200.27,63.16,199.59,63.18,199.24,63.07
			L199.24,63.07z M208.65,55.5c0.19-0.11,0.47-0.24,0.63-0.29c0.16-0.05,0.3-0.09,0.31-0.1c0.01-0.01-0.06-0.17-0.16-0.36
			c-0.14-0.28-0.18-0.41-0.18-0.68c0-0.19-0.01-0.34-0.02-0.34c-0.01,0-0.25,0.17-0.53,0.38c-0.28,0.21-0.62,0.43-0.76,0.49
			l-0.25,0.12v0.54c0,0.3-0.02,0.66-0.04,0.8l-0.04,0.26l0.35-0.31C208.15,55.84,208.46,55.61,208.65,55.5z M205.15,54.74
			c0.44-0.29,0.47-0.31,0.42-0.44c-0.03-0.08-0.05-0.33-0.05-0.56v-0.43l-0.3,0.23c-0.17,0.13-0.47,0.32-0.69,0.43
			c-0.29,0.15-0.38,0.22-0.37,0.29c0.07,0.46,0.07,0.57-0.01,0.85c-0.05,0.16-0.1,0.34-0.12,0.39c-0.02,0.05,0.12-0.03,0.31-0.18
			C204.53,55.16,204.89,54.91,205.15,54.74L205.15,54.74z M200.85,54.98c0.35-0.28,1.44-1,1.55-1.04c0.06-0.02,0.06-0.05,0-0.17
			c-0.11-0.25-0.07-0.66,0.12-1.12c0.02-0.05-0.19,0.07-0.46,0.28c-0.52,0.39-1.19,0.75-1.38,0.75c-0.17,0-0.18,0.05-0.06,0.29
			c0.14,0.27,0.12,0.72-0.04,1.05c-0.06,0.12-0.1,0.22-0.09,0.22S200.67,55.13,200.85,54.98L200.85,54.98z M211.82,49.84
			c0.26-0.17,0.47-0.32,0.47-0.34c0-0.02-0.05-0.12-0.12-0.22c-0.08-0.14-0.12-0.3-0.14-0.61c-0.01-0.23-0.04-0.42-0.05-0.42
			c-0.02,0-0.24,0.2-0.5,0.45c-0.26,0.25-0.54,0.49-0.63,0.54l-0.16,0.08l0.07,0.31c0.04,0.17,0.07,0.45,0.07,0.62v0.31l0.26-0.21
			C211.23,50.24,211.56,50.01,211.82,49.84L211.82,49.84z M204.63,49.66c0.31-0.29,0.63-0.56,0.73-0.6l0.17-0.07l-0.04-0.48
			c-0.02-0.29-0.01-0.57,0.02-0.69c0.05-0.2,0.04-0.19-0.5,0.32c-0.3,0.29-0.67,0.59-0.82,0.66c-0.14,0.07-0.27,0.14-0.28,0.14
			c-0.01,0.01,0.02,0.13,0.06,0.27c0.12,0.39,0.14,0.57,0.09,0.79c-0.03,0.11-0.04,0.2-0.02,0.2S204.32,49.95,204.63,49.66
			L204.63,49.66z M207.91,49.61c0.15-0.13,0.36-0.29,0.48-0.35l0.21-0.12l-0.03-0.35c-0.02-0.19-0.03-0.46-0.03-0.59l0-0.23
			l-0.45,0.43c-0.25,0.24-0.5,0.45-0.56,0.46c-0.14,0.04-0.18,0.22-0.12,0.49c0.03,0.12,0.05,0.31,0.05,0.42
			C207.45,50.02,207.43,50.02,207.91,49.61L207.91,49.61z M214.42,44.18l0.28-0.13l-0.15-0.33c-0.21-0.47-0.29-0.87-0.26-1.37
			l0.03-0.43L214,42.38c-0.44,0.64-0.7,0.95-0.93,1.07c-0.11,0.06-0.19,0.14-0.19,0.19c0,0.04,0.06,0.27,0.13,0.5
			c0.09,0.28,0.13,0.54,0.13,0.79v0.37l0.5-0.49C213.97,44.48,214.24,44.26,214.42,44.18L214.42,44.18z M210.06,44.61
			c0.19-0.28,0.71-0.8,0.94-0.94c0.11-0.06,0.2-0.12,0.21-0.12c0.01-0.01-0.03-0.18-0.07-0.38c-0.09-0.4-0.12-1.13-0.06-1.39
			c0.03-0.12-0.03-0.06-0.21,0.21c-0.5,0.74-0.83,1.1-1.3,1.4c-0.01,0,0.05,0.19,0.12,0.41c0.08,0.22,0.15,0.54,0.17,0.71
			c0.02,0.17,0.04,0.31,0.05,0.31C209.91,44.81,209.98,44.72,210.06,44.61L210.06,44.61z M226.92,62.58
			c-0.31-0.26-0.36-0.79-0.12-1.45c0.22-0.63,0.79-1.34,1.26-1.56c0.24-0.11,0.62-0.11,0.78,0c0.55,0.38,0.23,1.76-0.62,2.62
			c-0.31,0.31-0.58,0.46-0.91,0.5C227.14,62.72,227.07,62.7,226.92,62.58L226.92,62.58z M222.9,62.59c-0.94-0.43-0.5-2.29,0.82-3.47
			c0.59-0.53,1.09-0.64,1.51-0.34c0.32,0.23,0.41,0.47,0.38,0.99c-0.04,0.75-0.4,1.47-1.09,2.16
			C223.9,62.56,223.34,62.79,222.9,62.59z M180.14,62.46c0-0.07,0.35-0.22,0.61-0.26c0.2-0.03,0.22-0.03,0.16,0.05
			C180.78,62.4,180.14,62.57,180.14,62.46z M175.77,62.39c-0.86-0.1-0.82-0.26,0.08-0.32c0.34-0.02,0.66-0.07,0.72-0.1
			c0.19-0.1,1.5-0.23,1.4-0.14c-0.02,0.02-0.18,0.06-0.37,0.1L177.27,62l0.52,0.04c0.82,0.06,1.01,0.18,0.46,0.3
			C177.88,62.42,176.29,62.45,175.77,62.39L175.77,62.39z M183.87,62.4c-0.24-0.06-0.29-0.1-0.29-0.25c0-0.59,3.47-1.54,4.33-1.19
			c0.35,0.15,0.2,0.43-0.38,0.72C186.56,62.17,184.55,62.56,183.87,62.4z M230.89,62.31c-0.29-0.31-0.17-1.01,0.29-1.59
			c0.35-0.44,0.7-0.58,0.95-0.38c0.11,0.09,0.13,0.15,0.13,0.5c0,0.46-0.16,0.86-0.49,1.22C231.42,62.46,231.11,62.55,230.89,62.31z
			 M171.32,62.3c-0.46-0.04-1.89-0.29-2.24-0.4c-0.43-0.13-0.41-0.23,0.03-0.18c0.17,0.02,0.56,0.07,0.87,0.12
			c0.31,0.05,0.76,0.08,0.99,0.08s0.5,0.02,0.59,0.04c0.16,0.05,0.15,0.05-0.08,0.06l-0.24,0.01l0.29,0.07
			c0.16,0.04,0.3,0.09,0.32,0.11c0.05,0.05-0.1,0.14-0.2,0.13C171.6,62.33,171.46,62.31,171.32,62.3L171.32,62.3z M218.9,62.18
			c-0.59-0.19-0.84-0.89-0.61-1.68c0.34-1.15,1.65-2.6,2.54-2.8c0.25-0.05,0.68,0.03,0.88,0.17c0.09,0.06,0.22,0.25,0.3,0.41
			c0.12,0.27,0.13,0.34,0.11,0.84c-0.02,0.42-0.06,0.62-0.16,0.88c-0.47,1.15-1.64,2.14-2.57,2.2
			C219.19,62.22,218.98,62.21,218.9,62.18z M181.01,61.7c-0.2-0.12,0.2-0.31,1.22-0.57c1.41-0.36,2.35-0.48,2.35-0.29
			c0,0.22-1.31,0.64-2.59,0.83C181.31,61.76,181.11,61.77,181.01,61.7L181.01,61.7z M214.76,61.52c-0.16-0.08-0.29-0.21-0.4-0.39
			c-0.15-0.25-0.16-0.29-0.16-0.8c0-0.46,0.02-0.6,0.14-0.88c0.42-1.02,1.33-2.02,2.24-2.47c0.34-0.17,0.46-0.2,0.75-0.2
			c0.72,0,1.13,0.45,1.13,1.25c0,0.68-0.2,1.27-0.69,2c-0.46,0.7-1.06,1.23-1.68,1.49C215.69,61.69,215.09,61.69,214.76,61.52
			L214.76,61.52z M178.68,61.5c0.04-0.02,0.08-0.01,0.1,0c0.02,0.02-0.01,0.03-0.07,0.03C178.65,61.53,178.64,61.51,178.68,61.5z
			 M178.97,61.44c0.05-0.01,0.12-0.01,0.16,0c0.04,0.02-0.01,0.03-0.1,0.03C178.95,61.47,178.92,61.46,178.97,61.44L178.97,61.44z
			 M179.3,61.39c0.05-0.01,0.12-0.01,0.16,0c0.04,0.01-0.01,0.03-0.09,0.02C179.27,61.42,179.24,61.4,179.3,61.39L179.3,61.39z
			 M180.3,61.21c0.43-0.09,0.81-0.15,0.86-0.14c0.09,0.02-1,0.23-1.4,0.28C179.63,61.36,179.87,61.3,180.3,61.21z M160.25,61
			c-0.84-0.29-2.31-0.98-2.66-1.27c-0.55-0.44,0.76-0.04,2.38,0.72c0.65,0.31,0.88,0.47,0.88,0.62
			C160.84,61.19,160.78,61.18,160.25,61z M181.91,61.06c0-0.06,0.6-0.31,1.28-0.54c0.54-0.18,0.63-0.2,0.57-0.11
			c-0.05,0.08-0.61,0.33-1.2,0.53C182.07,61.11,181.91,61.14,181.91,61.06z M164.07,60.96c-0.49-0.13-1.46-0.46-1.68-0.57
			c-0.29-0.15-0.24-0.21,0.11-0.12c0.5,0.12,1.97,0.61,2.08,0.69c0.1,0.08,0.1,0.08-0.05,0.08C164.43,61.04,164.23,61,164.07,60.96
			L164.07,60.96z M188.12,60.99c-0.05-0.07,0.38-0.51,0.55-0.56c0.16-0.05,0.15,0.02-0.04,0.24
			C188.45,60.91,188.17,61.08,188.12,60.99L188.12,60.99z M191.66,60.97c-0.2-0.08-0.29-0.22-0.29-0.44c0-0.2,0.59-0.78,1.24-1.2
			c0.63-0.42,1.98-1.09,2.53-1.27c0.69-0.21,1.17-0.21,1.4,0.02c0.52,0.52-0.25,1.41-1.91,2.21
			C193.37,60.9,192.15,61.18,191.66,60.97L191.66,60.97z M164.68,60.89c-0.1-0.04-0.1-0.05,0.03-0.05c0.07,0,0.18,0.02,0.24,0.05
			c0.1,0.04,0.1,0.04-0.03,0.04C164.85,60.93,164.74,60.92,164.68,60.89z M185.03,60.89c0-0.14,0.64-0.55,1.06-0.67
			c0.24-0.07,0.12,0.1-0.21,0.33C185.34,60.91,185.03,61.03,185.03,60.89z M210.92,60.82c-0.12-0.03-0.31-0.15-0.46-0.3
			c-0.21-0.21-0.27-0.3-0.32-0.55c-0.3-1.45,1.54-3.78,3.21-4.08c0.51-0.09,0.87,0,1.17,0.29c0.26,0.26,0.35,0.5,0.35,0.97
			c0,1.12-1.22,2.79-2.52,3.44C211.8,60.87,211.36,60.94,210.92,60.82z M155.01,60.63c-0.75-0.31-1.21-0.63-1.21-0.83
			c0-0.09,0.03-0.1,0.15-0.07c0.36,0.08,1.84,0.93,1.84,1.05C155.79,60.89,155.48,60.83,155.01,60.63z M188.87,60.36
			c-0.39-0.17-0.02-0.68,0.93-1.25c0.87-0.53,2-0.97,2.62-1.04c0.4-0.04,0.72,0.07,0.72,0.25c0,0.4-0.76,0.99-2,1.54
			C190.22,60.26,189.18,60.49,188.87,60.36L188.87,60.36z M184.14,60.16c0.29-0.16,2.13-0.9,2.36-0.96c0.08-0.02,0.4-0.2,0.7-0.4
			c0.3-0.2,0.79-0.51,1.09-0.68c1.21-0.7,2.67-1.71,3.14-2.17c0.25-0.25,0.75-0.71,1.1-1.02c0.35-0.31,1.03-0.94,1.5-1.39
			c0.87-0.84,1.46-1.32,1.55-1.27c0.08,0.05-0.11,0.32-0.49,0.74c-0.19,0.21-0.54,0.64-0.76,0.95c-0.5,0.69-0.98,1.19-1,1.06
			c-0.01-0.05,0.05-0.2,0.13-0.34c0.08-0.14,0.11-0.23,0.07-0.2s-0.23,0.15-0.41,0.28c-0.19,0.13-0.37,0.23-0.41,0.23
			c-0.1,0-1.21,1.06-1.2,1.14c0.03,0.13-1.53,1.24-2.35,1.68c-0.21,0.11-0.68,0.4-1.05,0.65c-0.8,0.53-1.71,0.97-2.98,1.44
			C184.05,60.29,183.74,60.38,184.14,60.16L184.14,60.16z M186.06,59.95c0-0.11,0.4-0.35,1.13-0.69c0.7-0.33,2.05-0.9,2.13-0.9
			c0.03,0,0.33-0.27,0.67-0.61c0.34-0.33,0.71-0.65,0.83-0.71c0.12-0.06,0.36-0.22,0.54-0.35c1.06-0.81,2.35-1.66,2.7-1.77
			c0.37-0.12,0.46,0.09,0.18,0.44c-0.54,0.68-2.73,2.07-3.33,2.12c-0.19,0.01-0.28,0.07-0.65,0.42c-0.26,0.25-0.4,0.42-0.36,0.43
			c0.1,0.04-0.27,0.35-0.8,0.65C187.84,59.68,186.06,60.26,186.06,59.95z M160.64,59.4c-0.22-0.08-0.38-0.15-0.37-0.16
			c0.02-0.02,0.79,0.23,0.84,0.27C161.15,59.57,161.03,59.54,160.64,59.4z M156.48,58.29c-0.61-0.27-1.07-0.51-1.07-0.57
			c0-0.1,1.45,0.56,1.53,0.7C156.99,58.5,156.93,58.48,156.48,58.29z M192.18,57.75c0-0.16,0.21-0.47,0.55-0.83
			c0.27-0.28,0.41-0.35,0.41-0.22c0,0.1-0.58,0.94-0.74,1.06C192.23,57.91,192.18,57.91,192.18,57.75L192.18,57.75z M194.71,57.7
			c0-0.04,0.07-0.22,0.16-0.39c0.09-0.17,0.16-0.31,0.16-0.32s-0.2,0.06-0.45,0.16c-0.59,0.24-1.11,0.33-1.33,0.24
			c-0.44-0.18,0.01-0.8,1.31-1.82c1.38-1.08,2.3-1.56,2.68-1.41c0.61,0.23-0.31,1.61-1.63,2.44c-0.31,0.2-0.36,0.25-0.39,0.42
			C195.17,57.35,194.71,57.95,194.71,57.7L194.71,57.7z M152.27,57.6c-0.58-0.23-1.8-1.04-1.8-1.18c0-0.14,0.43,0.05,1.3,0.57
			c0.62,0.38,0.85,0.55,0.85,0.65C152.62,57.74,152.59,57.73,152.27,57.6z M225.54,56.65c-0.09-0.06-0.22-0.18-0.3-0.28
			c-0.11-0.16-0.13-0.24-0.13-0.72c0-0.51,0.01-0.56,0.19-0.94c0.47-0.98,1.24-1.65,1.77-1.53c0.62,0.14,0.87,1.03,0.53,1.94
			C227.17,56.28,226.16,57.03,225.54,56.65L225.54,56.65z M229.35,56.67c-0.48-0.2-0.37-1.22,0.22-2.04
			c0.32-0.45,0.62-0.67,0.89-0.67c0.59,0,0.76,0.68,0.38,1.49C230.43,56.32,229.79,56.85,229.35,56.67L229.35,56.67z M221.81,56.63
			c-0.62-0.19-0.94-0.92-0.76-1.76c0.15-0.69,0.81-1.73,1.4-2.19c0.71-0.56,1.24-0.6,1.64-0.12c0.18,0.22,0.24,0.37,0.3,0.77
			c0.09,0.65-0.12,1.41-0.61,2.16C223.21,56.37,222.43,56.82,221.81,56.63L221.81,56.63z M153.62,56.42
			c-0.11-0.06-0.2-0.12-0.2-0.13c0-0.03,0.42,0.17,0.48,0.22C153.96,56.57,153.8,56.52,153.62,56.42L153.62,56.42z M146.58,56.2
			c-0.14-0.09-0.26-0.2-0.26-0.24c0-0.09,0.02-0.08,0.36,0.16c0.12,0.08,0.23,0.18,0.23,0.21C146.92,56.4,146.85,56.38,146.58,56.2
			L146.58,56.2z M217.92,56.27c-0.72-0.23-1.04-1.05-0.81-2.04c0.24-1.01,1.19-2.27,2.01-2.68c0.24-0.12,0.37-0.15,0.7-0.15
			c0.36,0,0.43,0.02,0.62,0.15c0.64,0.45,0.74,1.57,0.23,2.66c-0.38,0.82-1.06,1.59-1.68,1.89
			C218.63,56.28,218.18,56.35,217.92,56.27z M148.86,54.43c-0.38-0.24-0.42-0.36-0.05-0.14c0.32,0.19,0.45,0.29,0.42,0.33
			C149.21,54.63,149.04,54.55,148.86,54.43z M194.85,54.13c-0.21-0.21,0.54-1.25,1.72-2.39c1.05-1.01,1.81-1.34,1.63-0.7
			c-0.1,0.36-0.58,0.96-1.39,1.78c-0.46,0.46-0.91,0.93-1,1.04c-0.13,0.18-0.17,0.2-0.21,0.13c-0.04-0.07-0.08-0.07-0.29,0.05
			C195.07,54.17,194.92,54.2,194.85,54.13L194.85,54.13z M143.76,52.58c-0.19-0.13-0.34-0.28-0.34-0.33c0-0.07,0.02-0.07,0.15,0.01
			c0.25,0.16,0.61,0.46,0.61,0.51C144.17,52.86,144.1,52.83,143.76,52.58z M194.79,52.62c0.18-0.28,0.88-1.19,0.95-1.23
			c0.06-0.04-0.2,0.33-0.78,1.09C194.74,52.79,194.63,52.87,194.79,52.62L194.79,52.62z M195.82,51.25
			c0.03-0.04,0.26-0.36,0.53-0.72c0.26-0.36,0.49-0.65,0.5-0.63s0,0.06-0.03,0.09c-0.03,0.04-0.26,0.35-0.52,0.7
			c-0.26,0.35-0.49,0.63-0.5,0.63C195.79,51.32,195.8,51.29,195.82,51.25L195.82,51.25z M196.22,51.04c0-0.08,0.16-0.34,0.54-0.88
			c0.41-0.58,0.79-1.27,1.9-3.49c0.81-1.6,1.22-2.53,1.89-4.22c0.04-0.1,0.27-0.74,0.51-1.41c0.24-0.67,0.49-1.36,0.57-1.53
			c0.23-0.5,0.22-0.18-0.03,0.56c-0.23,0.69-0.88,2.35-1,2.52c-0.04,0.06-0.14,0.31-0.22,0.56c-0.08,0.25-0.27,0.76-0.41,1.13
			c-0.14,0.37-0.27,0.72-0.29,0.78c-0.02,0.06,0.27-0.47,0.64-1.18c0.6-1.13,0.7-1.37,0.84-1.9c0.09-0.34,0.16-0.62,0.16-0.63
			c0-0.01,0.02-0.02,0.05-0.02c0.06,0,0.03,0.17-0.08,0.64c-0.07,0.29-0.07,0.29,0.04,0.17c0.25-0.27,0.28-0.04,0.07,0.54
			c-0.08,0.22-0.34,0.79-0.58,1.28c-0.68,1.36-1.32,2.37-1.51,2.37c-0.11,0-0.1-0.11,0.04-0.41c0.37-0.85,0.19-0.6-0.54,0.73
			c-0.43,0.79-0.61,1.16-0.62,1.31l-0.01,0.21l0.11-0.16c0.06-0.09,0.23-0.28,0.37-0.43c0.19-0.2,0.27-0.25,0.3-0.2
			c0.03,0.05,0.09-0.03,0.19-0.24c0.29-0.65,0.42-0.67,0.26-0.03c-0.06,0.23-0.1,0.43-0.09,0.43c0.01,0.01,0.17-0.21,0.37-0.49
			c0.78-1.1,1.29-1.63,1.53-1.59c0.08,0.02,0.1,0.08,0.12,0.29c0.05,0.75-0.8,2.23-1.9,3.34c-0.63,0.63-1.09,0.92-1.24,0.77
			c-0.07-0.08-0.08-0.12-0.02-0.3c0.04-0.11,0.14-0.34,0.23-0.5c0.13-0.24,0.47-1.12,0.47-1.23c0-0.02-0.09,0.12-0.2,0.29
			c-0.29,0.47-0.95,1.38-1.39,1.93c-0.21,0.27-0.43,0.55-0.48,0.63c-0.05,0.08-0.12,0.15-0.16,0.15c-0.04,0-0.12,0.06-0.19,0.13
			C196.3,51.11,196.22,51.14,196.22,51.04L196.22,51.04z M223.99,50.89c-0.22-0.07-0.5-0.36-0.58-0.59
			c-0.08-0.25-0.08-0.82,0.01-1.19c0.16-0.66,0.71-1.6,1.15-1.94c0.44-0.34,0.89-0.46,1.19-0.31c0.34,0.18,0.57,0.6,0.57,1.05
			c0,0.96-0.76,2.42-1.47,2.84C224.59,50.91,224.22,50.96,223.99,50.89L223.99,50.89z M220.14,50.61c-0.51-0.2-0.76-0.84-0.64-1.68
			c0.2-1.46,1.34-3,2.32-3.13c0.5-0.06,0.98,0.38,1.11,1.03c0.16,0.79,0,1.55-0.48,2.38c-0.27,0.45-0.98,1.16-1.34,1.33
			C220.79,50.68,220.39,50.71,220.14,50.61L220.14,50.61z M141.59,49.65c-0.07-0.06-0.18-0.15-0.24-0.19
			c-0.06-0.04-0.09-0.09-0.07-0.11c0.04-0.04,0.52,0.3,0.52,0.37C141.81,49.79,141.73,49.76,141.59,49.65z M201.21,44.79
			c-0.18-0.22,0.1-1.19,0.73-2.48c0.47-0.97,0.86-1.6,1.19-1.89c0.82-0.76,0.74,0.54-0.15,2.27c-0.42,0.81-0.98,1.66-1.3,1.96
			C201.41,44.89,201.32,44.92,201.21,44.79L201.21,44.79z M218.61,44.35c-0.49-0.25-0.73-0.72-0.77-1.45
			c-0.03-0.63,0.11-1.2,0.47-1.93c0.32-0.65,0.68-1.11,1.1-1.4c0.29-0.2,0.34-0.21,0.68-0.22c0.5,0,0.76,0.18,1.02,0.69
			c0.17,0.33,0.19,0.42,0.21,0.89c0.03,0.66-0.08,1.17-0.37,1.77c-0.41,0.85-0.86,1.37-1.37,1.61
			C219.29,44.46,218.84,44.47,218.61,44.35L218.61,44.35z M203.36,43.91c-0.12-0.1-0.13-0.14-0.12-0.61
			c0.01-0.42,0.04-0.59,0.2-1.09c0.11-0.32,0.34-0.88,0.51-1.23c0.66-1.34,1.28-2.06,1.74-2.02c0.84,0.08,0.11,2.69-1.22,4.35
			C204,43.89,203.6,44.1,203.36,43.91z M201.91,40.19c0-0.69,1.13-3.65,1.41-3.7c0.23-0.04,0.01,1.11-0.41,2.14
			c-0.42,1.02-0.82,1.77-0.95,1.77C201.94,40.41,201.91,40.31,201.91,40.19z M201.7,38.92c0-0.1,0.42-1.66,0.42-1.59
			c0.01,0.08-0.37,1.58-0.4,1.62C201.71,38.96,201.7,38.95,201.7,38.92z M203.48,38.89c-0.04-0.04-0.07-0.13-0.07-0.22
			c0-0.73,0.95-3.43,1.43-4.06c0.11-0.14,0.17-0.18,0.28-0.17c0.13,0.02,0.14,0.04,0.16,0.27c0.05,0.87-0.86,3.48-1.42,4.04
			C203.67,38.97,203.59,38.99,203.48,38.89z M205.58,37.85c-0.28-0.36-0.18-1.32,0.29-2.66c0.25-0.71,0.67-1.55,0.92-1.82
			c0.32-0.36,0.6-0.27,0.71,0.22c0.13,0.57,0.03,1.33-0.31,2.37C206.67,37.49,205.96,38.33,205.58,37.85z M207.93,37.5
			c-0.05-0.03-0.13-0.17-0.19-0.31c-0.12-0.32-0.12-1.09,0.01-1.7c0.23-1.09,0.78-2.34,1.24-2.81c0.24-0.25,0.3-0.28,0.49-0.28
			c0.54,0,0.79,0.8,0.59,1.94C209.73,36.23,208.61,37.9,207.93,37.5z M210.79,37.39c-0.33-0.13-0.51-0.46-0.6-1.03
			c-0.18-1.2,0.66-3.5,1.48-4.06c0.12-0.08,0.3-0.17,0.39-0.19c0.35-0.08,0.71,0.19,0.89,0.66c0.16,0.4,0.16,1.35,0,1.94
			C212.48,36.45,211.49,37.68,210.79,37.39L210.79,37.39z M202.13,37.15c0-0.06,0.02-0.07,0.03-0.03c0.02,0.04,0.01,0.09,0,0.1
			C202.14,37.24,202.13,37.21,202.13,37.15L202.13,37.15z M202.64,35.7c0.04-0.3,0.32-1.42,0.46-1.92c0.13-0.45,0.24-0.55,0.19-0.17
			c-0.05,0.37-0.45,1.91-0.54,2.14C202.64,36.01,202.59,35.99,202.64,35.7z M203.74,33.58c0-0.43,0.48-2.37,0.69-2.79
			c0.05-0.1,0.12-0.2,0.17-0.21c0.23-0.07-0.18,1.97-0.6,2.96C203.86,33.86,203.74,33.88,203.74,33.58L203.74,33.58z M205.29,32.19
			c-0.24-0.62,0.54-3.55,0.96-3.61c0.55-0.08-0.01,2.89-0.67,3.61c-0.08,0.08-0.16,0.15-0.18,0.15
			C205.37,32.34,205.33,32.27,205.29,32.19L205.29,32.19z M203.27,31.45c0-0.09,0.01-0.12,0.03-0.07c0.01,0.05,0.01,0.12,0,0.16
			C203.28,31.59,203.27,31.54,203.27,31.45L203.27,31.45z M207.2,31.23c-0.36-0.55,0.15-3.09,0.76-3.75
			c0.19-0.21,0.39-0.18,0.54,0.07c0.1,0.16,0.11,0.27,0.11,0.86c-0.01,0.81-0.17,1.48-0.53,2.24
			C207.73,31.35,207.41,31.56,207.2,31.23L207.2,31.23z M203.32,31.1c0-0.07,0.01-0.1,0.03-0.07c0.01,0.04,0.01,0.1,0,0.13
			C203.33,31.21,203.32,31.18,203.32,31.1z M209.5,30.86c-0.21-0.18-0.29-0.47-0.29-1.04c0.01-1.08,0.54-2.78,1.03-3.24
			c0.43-0.41,0.88-0.06,0.98,0.74c0.16,1.39-0.78,3.69-1.5,3.69C209.68,31,209.59,30.93,209.5,30.86z M203.98,28.43
			c0.02-0.08,0.06-0.33,0.09-0.55c0.09-0.55,0.18-0.68,0.13-0.19c-0.04,0.49-0.13,0.89-0.2,0.89
			C203.97,28.58,203.96,28.51,203.98,28.43L203.98,28.43z M205.03,26.19c0-0.34,0.18-1.37,0.27-1.54c0.11-0.2,0.16-0.12,0.16,0.24
			c0,0.56-0.25,1.58-0.38,1.58C205.05,26.48,205.03,26.35,205.03,26.19L205.03,26.19z M206.5,24.94c-0.12-0.43,0.05-1.75,0.29-2.25
			c0.12-0.26,0.27-0.24,0.35,0.05c0.12,0.42-0.11,1.85-0.35,2.21C206.67,25.13,206.55,25.12,206.5,24.94L206.5,24.94z"/>
	</g>
	<g class="st3">
		<defs>
			<path id="path3347_24_" class="st3" d="M218.02,77.88c-0.26-0.29,0.33-0.91,0.86-0.92c0.33,0,0.38,0.19,0.13,0.53
				C218.69,77.93,218.23,78.11,218.02,77.88z M181.11,77.45c-0.16-0.16-0.13-0.19,0.19-0.17c0.45,0.03,0.57,0.28,0.13,0.28
				C181.29,77.56,181.18,77.52,181.11,77.45z M198.87,77.29c-0.19-0.06-0.37-0.24-0.43-0.42c-0.09-0.29,0.58-0.63,1.41-0.74
				c0.56-0.07,1.04,0.13,1.04,0.44c0,0.19-0.31,0.46-0.69,0.61C199.86,77.31,199.15,77.37,198.87,77.29L198.87,77.29z M213.44,76.97
				c-0.1-0.06-0.21-0.18-0.25-0.26c-0.08-0.15-0.07-0.17,0.07-0.4c0.27-0.42,0.84-0.74,1.33-0.74c0.3,0,0.42,0.06,0.49,0.27
				c0.08,0.22,0,0.38-0.36,0.71c-0.31,0.29-0.75,0.53-0.96,0.53C213.67,77.07,213.53,77.02,213.44,76.97L213.44,76.97z M188.04,76.8
				c-0.24-0.07-0.48-0.3-0.48-0.45c0-0.18,0.21-0.24,0.8-0.24c0.67,0,1.06,0.12,1.06,0.32C189.41,76.71,188.53,76.94,188.04,76.8z
				 M247.73,75.23c-0.35-0.48-3.64-5.05-7.33-10.16l-6.69-9.28l-0.15,0.32c-0.21,0.43-0.66,0.89-0.92,0.94
				c-0.17,0.03-0.22,0.02-0.34-0.1c-0.32-0.32-0.06-1.26,0.5-1.82l0.25-0.25l-0.69-0.96c-0.38-0.53-0.81-1.13-0.96-1.35
				c-0.24-0.35-0.29-0.39-0.45-0.39c-0.1,0-0.22-0.03-0.28-0.05c-0.12-0.07-0.22-0.33-0.22-0.62c0-0.21-0.05-0.31-0.54-0.99
				c-0.3-0.42-0.55-0.75-0.56-0.75c-0.01,0-0.08,0.11-0.16,0.25c-0.54,0.93-1.38,1.19-1.73,0.54c-0.13-0.24-0.13-0.93,0.01-1.36
				c0.06-0.18,0.23-0.51,0.38-0.73l0.28-0.41l-0.88-1.23c-0.49-0.67-0.92-1.27-0.97-1.32c-0.05-0.05-0.16-0.1-0.26-0.1
				c-0.33,0-0.67-0.53-0.67-1.05c0-0.13-0.11-0.33-0.45-0.8l-0.45-0.63l-0.16,0.34c-0.48,1-1.35,1.67-1.94,1.49
				c-0.71-0.21-1.02-1.07-0.76-2.1c0.16-0.64,0.49-1.27,0.88-1.69l0.32-0.35l-0.75-1.04c-0.57-0.79-0.77-1.03-0.85-1.02
				c-0.06,0.01-0.19,0.03-0.3,0.05c-0.48,0.08-0.89-0.18-1.12-0.69c-0.11-0.25-0.13-0.37-0.13-0.98c-0.01-0.57-0.03-0.73-0.1-0.85
				c-0.05-0.08-0.11-0.14-0.13-0.14c-0.02,0-0.07,0.1-0.11,0.22c-0.17,0.57-0.77,1.5-1.16,1.79c-0.44,0.34-0.94,0.45-1.27,0.28
				c-0.24-0.12-0.52-0.49-0.63-0.82c-0.16-0.49-0.13-1.61,0.05-2.24c0.2-0.66,0.57-1.4,0.87-1.73l0.25-0.27l-0.63-0.88
				c-0.35-0.48-0.63-0.88-0.64-0.89c0-0.01-0.09,0.03-0.18,0.07c-0.25,0.12-0.65,0.08-0.88-0.11c-0.39-0.3-0.68-1.23-0.6-1.92
				c0.04-0.3,0.03-0.32-0.17-0.58l-0.2-0.27l-0.12,0.47c-0.32,1.28-0.84,2-1.44,2c-0.26,0-0.52-0.23-0.69-0.61
				c-0.12-0.25-0.13-0.36-0.13-0.98c0-0.56,0.03-0.79,0.12-1.13c0.18-0.63,0.37-1.1,0.58-1.46c0.16-0.27,0.18-0.33,0.12-0.42
				c-0.04-0.06-0.39-0.56-0.79-1.11l-0.73-1.01l-0.15,0.11c-0.46,0.33-0.8-0.07-0.85-1l-0.03-0.54l-0.35-0.47
				c-0.19-0.26-0.35-0.47-0.36-0.47s0,0.07,0.01,0.16c0.04,0.25-0.09,1.07-0.23,1.47c-0.33,0.95-0.81,1-0.88,0.09
				c-0.03-0.42,0.1-1.28,0.26-1.79c0.11-0.34,0.33-0.68,0.43-0.68c0.03,0,0.61-0.24,1.29-0.54c1.71-0.75,3.1-1.18,4.86-1.52
				c1.45-0.28,1.94-0.32,3.6-0.32c1.63,0,2.49,0.07,3.9,0.3c4.12,0.68,7.23,2.25,9,4.56c0.21,0.27,36.89,52.19,36.98,52.35
				c0.03,0.05-1.99,0.07-10.07,0.07h-10.11L247.73,75.23L247.73,75.23z M208.72,75.77c-0.39-0.22-0.48-0.5-0.3-0.88
				c0.26-0.53,1.24-1.02,1.92-0.95c0.26,0.03,0.5,0.28,0.5,0.53c0,0.46-0.35,0.88-0.96,1.17C209.5,75.82,208.9,75.89,208.72,75.77
				L208.72,75.77z M194.15,75.08c-0.96-0.14-1.24-0.74-0.5-1.09c0.6-0.29,1.88-0.38,2.38-0.17c0.6,0.25,0.6,0.71,0,1.02
				C195.6,75.04,194.71,75.16,194.15,75.08L194.15,75.08z M203.71,74.22c-0.09-0.03-0.25-0.12-0.34-0.21
				c-0.22-0.22-0.23-0.52-0.02-0.79c0.27-0.35,1.08-0.79,1.75-0.95c0.6-0.14,0.95-0.08,1.29,0.22c0.18,0.16,0.21,0.22,0.21,0.42
				c0,0.37-0.29,0.68-0.93,1.01C205.05,74.22,204.18,74.35,203.71,74.22L203.71,74.22z M175.96,73.85
				c-0.43-0.14-0.62-0.34-0.39-0.41c0.25-0.08,1.11,0.21,1.17,0.38C176.79,73.97,176.36,73.99,175.96,73.85z M183.07,73.83
				c-0.38-0.1-0.66-0.24-0.78-0.4c-0.28-0.36,0.04-0.52,0.95-0.48c0.32,0.02,0.72,0.06,0.89,0.09c0.74,0.16,1.08,0.54,0.66,0.75
				C184.57,73.89,183.42,73.92,183.07,73.83L183.07,73.83z M229.78,73.64c-0.15-0.1-0.19-0.27-0.1-0.5c0.11-0.27,0.57-0.7,0.76-0.7
				c0.13,0,0.13,0.01,0.11,0.23c-0.04,0.3-0.24,0.71-0.44,0.87C229.96,73.69,229.88,73.71,229.78,73.64z M225.63,73.49
				c-0.26-0.22-0.2-0.56,0.19-1.03c0.56-0.69,1.34-0.74,1.23-0.08c-0.04,0.26-0.48,0.9-0.75,1.1
				C226.04,73.67,225.84,73.67,225.63,73.49z M221.45,73.33c-0.21-0.1-0.29-0.28-0.29-0.59c0-0.47,0.45-1.08,1.05-1.43
				c0.56-0.33,0.99-0.13,0.99,0.45C223.2,72.63,222.07,73.64,221.45,73.33z M233.65,73.23c-0.02-0.04,0.02-0.15,0.09-0.24
				c0.09-0.13,0.13-0.15,0.19-0.1c0.04,0.03,0.07,0.08,0.06,0.1C233.84,73.31,233.72,73.4,233.65,73.23z M189.58,72.79
				c-1.28-0.2-1.82-0.97-0.94-1.33c0.6-0.25,2.03-0.3,2.67-0.1c0.48,0.15,0.72,0.35,0.72,0.61c0,0.1-0.04,0.23-0.08,0.3
				c-0.1,0.15-0.44,0.33-0.8,0.42C190.85,72.77,189.85,72.83,189.58,72.79L189.58,72.79z M217.1,72.66
				c-0.91-0.2-0.61-1.32,0.58-2.16c0.63-0.44,1.09-0.52,1.47-0.23c0.47,0.35,0.31,1.03-0.39,1.69
				C218.23,72.46,217.52,72.76,217.1,72.66L217.1,72.66z M199.17,72.54c-0.55-0.15-0.85-0.49-0.78-0.88
				c0.15-0.8,2.34-1.61,3.32-1.23c0.53,0.21,0.68,0.68,0.37,1.17C201.65,72.28,200.09,72.78,199.17,72.54z M212.52,71.66
				c-0.6-0.3-0.57-1.04,0.05-1.72c0.99-1.06,2.23-1.37,2.68-0.66c0.15,0.23,0.12,0.72-0.05,1.09c-0.19,0.39-0.73,0.9-1.23,1.14
				c-0.36,0.18-0.47,0.21-0.84,0.22C212.81,71.75,212.65,71.73,212.52,71.66z M178.65,70.92c-0.67-0.13-1.35-0.39-1.58-0.62
				c-0.06-0.06-0.11-0.17-0.11-0.24c0-0.22,0.17-0.27,0.89-0.27c1.59,0.02,3.06,0.62,2.61,1.06c-0.1,0.1-0.18,0.12-0.77,0.12
				C179.32,70.99,178.87,70.96,178.65,70.92z M194.49,70.6c-0.83-0.19-1.16-0.63-0.85-1.1c0.15-0.23,0.71-0.6,1.17-0.78
				c0.97-0.38,2.2-0.5,2.79-0.28c0.82,0.3,0.81,0.88-0.03,1.44C196.68,70.48,195.32,70.79,194.49,70.6L194.49,70.6z M208.1,70.51
				c-0.22-0.09-0.48-0.31-0.57-0.48c-0.27-0.53,0.26-1.36,1.27-1.98c0.84-0.52,1.79-0.7,2.23-0.43c0.62,0.39,0.53,1.17-0.25,1.93
				c-0.65,0.64-1.36,0.98-2.1,1.01C208.44,70.56,208.17,70.54,208.1,70.51L208.1,70.51z M171.44,70.34
				c-0.47-0.07-0.89-0.24-1.09-0.43c-0.24-0.24-0.2-0.34,0.17-0.33c0.46,0.02,1.63,0.42,1.75,0.61
				C172.36,70.35,171.97,70.42,171.44,70.34z M184.91,70.35c-0.66-0.08-1.27-0.31-1.53-0.57c-0.2-0.2-0.18-0.47,0.05-0.63
				c0.4-0.3,1.61-0.47,2.64-0.37c0.99,0.1,1.49,0.31,1.67,0.69c0.09,0.18,0.08,0.2-0.01,0.33c-0.14,0.19-0.51,0.37-0.96,0.46
				C186.29,70.37,185.37,70.41,184.91,70.35L184.91,70.35z M203.62,69.22c-0.47-0.14-0.74-0.47-0.74-0.92c0-0.5,0.33-0.98,1-1.43
				c1.43-0.97,2.93-1.01,3.28-0.1c0.31,0.82-0.69,1.94-2.14,2.38C204.63,69.28,203.92,69.31,203.62,69.22L203.62,69.22z
				 M189.94,68.71c-0.59-0.16-0.85-0.39-0.85-0.74c0-0.42,0.45-0.81,1.26-1.08c1.26-0.43,2.66-0.46,3.33-0.08
				c1.04,0.59,0.12,1.57-1.79,1.9C191.29,68.81,190.32,68.81,189.94,68.71L189.94,68.71z M163.01,68.39
				c-0.09-0.04-0.2-0.13-0.23-0.19c-0.06-0.11-0.05-0.12,0.07-0.09c0.23,0.06,0.51,0.19,0.58,0.28c0.06,0.07,0.05,0.08-0.08,0.08
				C163.25,68.47,163.1,68.43,163.01,68.39z M224.35,68.38c-0.06-0.01-0.18-0.1-0.27-0.18c-0.42-0.44-0.1-1.57,0.68-2.36
				c0.71-0.73,1.51-0.83,1.76-0.23c0.36,0.86-0.84,2.64-1.87,2.77C224.55,68.39,224.42,68.39,224.35,68.38z M228.44,68.31
				c-0.35-0.14-0.42-0.74-0.14-1.3c0.32-0.66,0.91-1.17,1.32-1.17c0.17,0,0.21,0.03,0.3,0.17c0.32,0.53-0.15,1.75-0.86,2.2
				C228.82,68.36,228.65,68.39,228.44,68.31z M174.76,68.17c-1.31-0.22-2.51-0.77-2.46-1.15c0.03-0.29,0.41-0.34,1.35-0.2
				c1.23,0.19,2.17,0.49,2.55,0.81c0.42,0.36,0.24,0.56-0.52,0.59C175.43,68.24,175.02,68.22,174.76,68.17L174.76,68.17z
				 M180.71,67.93c-1.39-0.13-2.41-0.7-1.97-1.09c0.28-0.26,1.23-0.39,2.45-0.34c1.41,0.05,2.27,0.27,2.59,0.64
				c0.12,0.14,0.13,0.17,0.06,0.27c-0.11,0.18-0.52,0.36-0.99,0.44C182.27,67.95,181.29,67.99,180.71,67.93z M220.03,67.86
				c-0.54-0.37-0.57-1.01-0.07-1.87c0.29-0.5,1.03-1.23,1.47-1.44c0.48-0.24,0.68-0.26,0.98-0.13c0.34,0.15,0.46,0.37,0.47,0.79
				c0,0.64-0.44,1.51-1.09,2.13C221.18,67.94,220.46,68.15,220.03,67.86L220.03,67.86z M232.18,67.9c-0.19-0.23,0.12-1.01,0.53-1.33
				c0.23-0.18,0.34-0.18,0.52-0.03c0.13,0.12,0.14,0.13,0.08,0.4c-0.07,0.33-0.29,0.65-0.6,0.88C232.46,68,232.29,68.03,232.18,67.9
				z M199.18,67.75c-0.86-0.27-1.01-1.03-0.35-1.76c0.6-0.67,2.13-1.34,3.05-1.33c1.3,0,1.82,0.83,1.11,1.77
				c-0.35,0.46-1.43,1.09-2.23,1.29C200.27,67.84,199.54,67.85,199.18,67.75L199.18,67.75z M236.01,67.33
				c-0.09-0.09-0.07-0.18,0.08-0.36c0.23-0.28,0.4-0.2,0.27,0.12C236.26,67.31,236.1,67.42,236.01,67.33z M215.97,67.13
				c-1.02-0.46-0.73-1.95,0.61-3.05c1-0.83,1.99-0.88,2.38-0.12c0.09,0.18,0.11,0.29,0.09,0.66c-0.02,0.38-0.05,0.5-0.22,0.84
				c-0.36,0.71-1.17,1.46-1.83,1.68C216.67,67.26,216.24,67.25,215.97,67.13L215.97,67.13z M167.35,67.01
				c-1.09-0.29-2.12-0.88-1.97-1.12c0.09-0.15,0.88,0.02,1.87,0.4c0.78,0.3,1.15,0.58,1,0.75
				C168.17,67.15,167.83,67.14,167.35,67.01z M185.9,66.91c-1.02-0.16-1.51-0.64-1.12-1.11c0.66-0.78,3.85-1.19,4.93-0.63
				c0.45,0.23,0.56,0.63,0.25,0.93c-0.31,0.31-0.85,0.53-1.76,0.7C187.55,66.93,186.4,66.98,185.9,66.91z M211.74,66.32
				c-1.07-0.32-1-1.53,0.16-2.74c0.46-0.48,0.99-0.88,1.45-1.08c0.39-0.17,1.01-0.2,1.32-0.06c0.82,0.36,0.83,1.55,0.03,2.52
				C213.94,65.88,212.49,66.54,211.74,66.32L211.74,66.32z M195.07,66.27c-0.41-0.07-0.83-0.29-0.96-0.5
				c-0.34-0.54,0.17-1.17,1.48-1.81c1.06-0.52,1.89-0.76,2.68-0.76c1.54,0,1.64,1.31,0.19,2.28c-0.52,0.35-0.92,0.52-1.55,0.68
				C196.41,66.29,195.48,66.34,195.07,66.27L195.07,66.27z M177.26,65.72c-1.11-0.1-2.22-0.39-2.55-0.67
				c-0.39-0.33-0.06-0.5,1.03-0.54c1.17-0.04,2.83,0.12,3.61,0.36c0.61,0.19,0.83,0.54,0.46,0.72
				C179.41,65.77,178.4,65.82,177.26,65.72z M171.32,65.48c-1.35-0.21-2.74-0.68-3.21-1.07c-0.52-0.44,0.18-0.51,1.76-0.19
				c1.39,0.29,2.32,0.59,2.65,0.87C173.03,65.5,172.53,65.67,171.32,65.48L171.32,65.48z M207.41,65.31
				c-0.53-0.19-0.73-0.48-0.7-1.03c0.04-0.64,0.5-1.37,1.28-2.02c0.72-0.61,1.5-0.98,2.15-1.03c0.47-0.04,0.77,0.05,1.02,0.31
				c0.39,0.39,0.39,1.04-0.01,1.71C210.28,64.68,208.47,65.68,207.41,65.31z M181.9,65.03c-0.35-0.06-0.73-0.2-0.94-0.32
				c-0.37-0.22-0.15-0.53,0.52-0.75c0.69-0.23,2.24-0.43,3.28-0.43c0.67,0,1.06,0.06,1.38,0.22c0.71,0.34,0,0.86-1.64,1.18
				C183.87,65.05,182.35,65.11,181.9,65.03L181.9,65.03z M191.04,64.81c-0.53-0.08-0.95-0.32-1.04-0.59
				c-0.16-0.51,0.78-1.19,2.47-1.77c1.58-0.54,2.7-0.57,3.2-0.08c0.16,0.16,0.18,0.21,0.16,0.4c-0.04,0.27-0.24,0.54-0.63,0.82
				C194.09,64.41,192.15,64.98,191.04,64.81L191.04,64.81z M159.16,64.48c-0.39-0.08-1.1-0.52-1.04-0.64
				c0.04-0.06,0.37,0.04,0.73,0.22C159.4,64.34,159.57,64.57,159.16,64.48z M203.44,64.17c-0.34-0.07-0.64-0.25-0.81-0.46
				c-0.2-0.26-0.2-0.63-0.02-1.01c0.45-0.92,1.82-2.03,3.01-2.43c0.44-0.15,1.19-0.14,1.49,0.02c0.73,0.38,0.74,1.16,0.02,2.22
				c-0.46,0.68-1.45,1.35-2.33,1.58C204.39,64.19,203.73,64.23,203.44,64.17L203.44,64.17z M164.09,64.02
				c-1.07-0.24-3.04-1.19-3.04-1.47c0-0.24,0.73-0.08,2.04,0.44c0.92,0.37,1.39,0.62,1.51,0.82c0.05,0.09,0.09,0.18,0.07,0.21
				C164.65,64.06,164.28,64.07,164.09,64.02z M174.28,63.86c-1.21-0.12-2.01-0.27-2.45-0.47c-0.31-0.14-0.36-0.25-0.17-0.36
				c0.17-0.1,1.44-0.08,2.29,0.03c0.37,0.04,0.68,0.06,0.7,0.04c0.04-0.06,0.41-0.12,0.46-0.07c0.02,0.02-0.05,0.07-0.17,0.1
				l-0.21,0.06l0.27,0.04c0.6,0.09,1.05,0.36,0.87,0.51C175.72,63.86,174.93,63.93,174.28,63.86z M178.69,63.47
				c-0.49-0.06-0.93-0.21-0.96-0.33c-0.04-0.21,0.64-0.37,2.03-0.48c1.54-0.12,2.69-0.01,2.69,0.24
				C182.45,63.25,179.99,63.62,178.69,63.47z M187.16,63.47c-0.48-0.1-0.78-0.3-0.78-0.5c0-0.17,0.4-0.5,0.88-0.73
				c0.88-0.42,2.43-0.87,3.34-0.97c0.29-0.03,0.58-0.08,0.63-0.11c0.08-0.04,0.1-0.04,0.1,0.02c0,0.04,0.07,0.09,0.16,0.11
				c0.26,0.06,0.43,0.23,0.43,0.42c0,0.63-1.13,1.35-2.64,1.69C188.82,63.49,187.48,63.54,187.16,63.47L187.16,63.47z M183.47,63.23
				c0-0.08,0.28-0.22,0.39-0.18c0.04,0.02-0.01,0.07-0.12,0.14C183.52,63.33,183.47,63.33,183.47,63.23z M167.75,63.12
				c-1.41-0.26-2.98-0.89-2.98-1.19c0-0.19,1.14,0.02,2.58,0.47c0.87,0.28,1.46,0.6,1.33,0.73C168.6,63.2,168.14,63.19,167.75,63.12
				z M199.24,63.07c-0.3-0.09-0.59-0.32-0.7-0.54c-0.28-0.58,0.49-1.65,1.81-2.53c0.6-0.4,0.91-0.54,1.67-0.78
				c0.31-0.09,0.58-0.18,0.6-0.19c0.02-0.01-0.01-0.07-0.07-0.13c-0.26-0.26-0.27-0.77-0.02-1.41c0.02-0.06-0.11,0-0.39,0.19
				c-0.43,0.29-0.87,0.48-1.56,0.69l-0.39,0.12l0.11,0.21c0.22,0.43,0.04,0.92-0.6,1.56c-0.93,0.93-2.49,1.68-3.63,1.75
				c-0.6,0.04-0.9-0.04-1.14-0.28c-0.35-0.35-0.2-0.82,0.46-1.48c0.76-0.76,2.15-1.57,3.19-1.86l0.51-0.14L199,58.12
				c-0.16-0.17-0.12-0.65,0.11-1.12c0.09-0.2,0.17-0.38,0.17-0.39c0-0.01-0.14,0.08-0.31,0.21c-0.38,0.29-0.88,0.59-1.21,0.73
				c-0.16,0.07-0.28,0.16-0.33,0.27c-0.12,0.24-0.21,0.27-0.18,0.07c0.02-0.16,0.02-0.16-0.14-0.13c-0.31,0.07-0.8,0.04-0.95-0.06
				c-0.62-0.41-0.07-1.37,1.51-2.64c0.79-0.63,1.48-1.07,1.96-1.24l0.27-0.09l-0.13-0.13c-0.12-0.12-0.13-0.17-0.11-0.47
				c0.02-0.26,0.07-0.44,0.23-0.77l0.21-0.43l-0.49,0.46c-0.79,0.76-1.61,1.24-2.16,1.29c-0.37,0.03-0.46-0.04-0.43-0.33
				c0.08-0.59,1.59-2.46,2.57-3.19c1.11-0.82,1.79-0.62,1.37,0.41l-0.12,0.29l0.59-0.59c0.33-0.33,0.8-0.75,1.06-0.93
				c0.41-0.3,0.46-0.35,0.39-0.42c-0.04-0.04-0.09-0.14-0.11-0.21c-0.05-0.21,0.02-0.82,0.14-1.17c0.09-0.27,0.1-0.3,0.02-0.19
				c-0.85,1.22-2.23,2.22-2.58,1.87c-0.26-0.26,0.22-1.47,1.12-2.82c0.76-1.14,1.46-1.83,1.96-1.93c0.41-0.08,0.58,0.27,0.45,0.9
				c-0.08,0.36-0.08,0.38,0.01,0.26c0.56-0.85,1.16-1.51,1.63-1.78l0.37-0.22l-0.14-0.11c-0.2-0.15-0.29-0.41-0.29-0.79
				c0-1.12,0.91-3.22,1.79-4.13c0.68-0.71,1.22-0.65,1.38,0.14c0.17,0.8-0.34,2.43-1.13,3.64c-0.32,0.49-0.86,1.04-1.12,1.15
				l-0.17,0.07l0.17,0.08c0.24,0.12,0.32,0.31,0.32,0.8c0,0.58,0.04,0.62,0.29,0.25c0.12-0.17,0.46-0.54,0.76-0.82l0.55-0.52
				l-0.09-0.21c-0.14-0.31-0.12-1.26,0.03-1.82c0.29-1.06,0.86-2.2,1.42-2.8c0.52-0.56,1.02-0.73,1.43-0.5
				c0.38,0.21,0.56,0.65,0.57,1.35l0,0.46l0.22-0.39c0.46-0.82,0.89-1.27,1.43-1.53l0.3-0.14l-0.21-0.2
				c-0.8-0.79-0.53-3.11,0.54-4.64c0.36-0.51,0.76-0.79,1.18-0.81c0.38-0.03,0.6,0.1,0.83,0.47c0.79,1.29-0.15,4.49-1.52,5.15
				l-0.25,0.12l0.2,0.21c0.27,0.28,0.41,0.74,0.46,1.47l0.04,0.56l0.31-0.47c0.7-1.06,1.48-1.5,2.1-1.19
				c0.51,0.26,0.75,0.8,0.75,1.66c0,1.49-1.02,3.47-2.03,3.96l-0.21,0.1l0.18,0.27c0.32,0.48,0.41,1.21,0.26,2.08l-0.03,0.18
				l0.15-0.24c0.77-1.25,1.81-1.91,2.48-1.57c0.53,0.27,0.79,0.81,0.79,1.59c-0.01,0.78-0.26,1.55-0.79,2.36
				c-0.56,0.85-1.19,1.31-1.89,1.37c-0.3,0.03-0.39,0.01-0.64-0.11c-0.19-0.09-0.34-0.22-0.45-0.37c-0.15-0.22-0.15-0.23-0.15-1.02
				l0-0.8l-0.16,0.28c-0.22,0.38-0.68,0.86-1.22,1.28c-0.25,0.19-0.46,0.36-0.47,0.36c-0.01,0,0.04,0.11,0.11,0.24
				c0.11,0.21,0.12,0.32,0.12,1l0,0.77l0.44-0.45c0.77-0.78,1.32-1.09,1.91-1.04c0.41,0.03,0.7,0.23,0.93,0.63
				c0.16,0.29,0.17,0.32,0.16,0.94c0,0.59-0.02,0.69-0.17,1.12c-0.43,1.2-1.4,2.3-2.31,2.62c-0.34,0.12-0.92,0.13-1.17,0.03
				c-0.51-0.21-0.79-0.71-0.8-1.38c0-0.23,0.02-0.47,0.04-0.54c0.03-0.09-0.04-0.03-0.18,0.15c-0.33,0.41-0.76,0.73-1.46,1.07
				c-0.34,0.17-0.62,0.31-0.63,0.32c-0.01,0.01,0.05,0.13,0.13,0.28c0.14,0.23,0.15,0.31,0.15,0.74c0,0.4-0.03,0.54-0.14,0.81
				c-0.4,0.95-1.45,2.03-2.47,2.55c-0.48,0.24-0.86,0.35-1.27,0.35c-0.32,0-0.42-0.02-0.63-0.14c-0.25-0.15-0.43-0.38-0.49-0.64
				c-0.02-0.08,0-0.33,0.05-0.56c0.12-0.65,0.13-0.65-0.26-0.34c-0.6,0.48-1.61,0.92-2.14,0.92h-0.15l0.15,0.22
				c0.13,0.2,0.15,0.27,0.15,0.66c0,0.38-0.02,0.47-0.16,0.73c-0.49,0.89-1.83,1.85-3,2.15C200.27,63.16,199.59,63.18,199.24,63.07
				L199.24,63.07z M208.65,55.5c0.19-0.11,0.47-0.24,0.63-0.29c0.16-0.05,0.3-0.09,0.31-0.1c0.01-0.01-0.06-0.17-0.16-0.36
				c-0.14-0.28-0.18-0.41-0.18-0.68c0-0.19-0.01-0.34-0.02-0.34c-0.01,0-0.25,0.17-0.53,0.38c-0.28,0.21-0.62,0.43-0.76,0.49
				l-0.25,0.12v0.54c0,0.3-0.02,0.66-0.04,0.8l-0.04,0.26l0.35-0.31C208.15,55.84,208.46,55.61,208.65,55.5z M205.15,54.74
				c0.44-0.29,0.47-0.31,0.42-0.44c-0.03-0.08-0.05-0.33-0.05-0.56v-0.43l-0.3,0.23c-0.17,0.13-0.47,0.32-0.69,0.43
				c-0.29,0.15-0.38,0.22-0.37,0.29c0.07,0.46,0.07,0.57-0.01,0.85c-0.05,0.16-0.1,0.34-0.12,0.39c-0.02,0.05,0.12-0.03,0.31-0.18
				C204.53,55.16,204.89,54.91,205.15,54.74L205.15,54.74z M200.85,54.98c0.35-0.28,1.44-1,1.55-1.04c0.06-0.02,0.06-0.05,0-0.17
				c-0.11-0.25-0.07-0.66,0.12-1.12c0.02-0.05-0.19,0.07-0.46,0.28c-0.52,0.39-1.19,0.75-1.38,0.75c-0.17,0-0.18,0.05-0.06,0.29
				c0.14,0.27,0.12,0.72-0.04,1.05c-0.06,0.12-0.1,0.22-0.09,0.22S200.67,55.13,200.85,54.98L200.85,54.98z M211.82,49.84
				c0.26-0.17,0.47-0.32,0.47-0.34c0-0.02-0.05-0.12-0.12-0.22c-0.08-0.14-0.12-0.3-0.14-0.61c-0.01-0.23-0.04-0.42-0.05-0.42
				c-0.02,0-0.24,0.2-0.5,0.45c-0.26,0.25-0.54,0.49-0.63,0.54l-0.16,0.08l0.07,0.31c0.04,0.17,0.07,0.45,0.07,0.62v0.31l0.26-0.21
				C211.23,50.24,211.56,50.01,211.82,49.84L211.82,49.84z M204.63,49.66c0.31-0.29,0.63-0.56,0.73-0.6l0.17-0.07l-0.04-0.48
				c-0.02-0.29-0.01-0.57,0.02-0.69c0.05-0.2,0.04-0.19-0.5,0.32c-0.3,0.29-0.67,0.59-0.82,0.66c-0.14,0.07-0.27,0.14-0.28,0.14
				c-0.01,0.01,0.02,0.13,0.06,0.27c0.12,0.39,0.14,0.57,0.09,0.79c-0.03,0.11-0.04,0.2-0.02,0.2S204.32,49.95,204.63,49.66
				L204.63,49.66z M207.91,49.61c0.15-0.13,0.36-0.29,0.48-0.35l0.21-0.12l-0.03-0.35c-0.02-0.19-0.03-0.46-0.03-0.59l0-0.23
				l-0.45,0.43c-0.25,0.24-0.5,0.45-0.56,0.46c-0.14,0.04-0.18,0.22-0.12,0.49c0.03,0.12,0.05,0.31,0.05,0.42
				C207.45,50.02,207.43,50.02,207.91,49.61L207.91,49.61z M214.42,44.18l0.28-0.13l-0.15-0.33c-0.21-0.47-0.29-0.87-0.26-1.37
				l0.03-0.43L214,42.38c-0.44,0.64-0.7,0.95-0.93,1.07c-0.11,0.06-0.19,0.14-0.19,0.19c0,0.04,0.06,0.27,0.13,0.5
				c0.09,0.28,0.13,0.54,0.13,0.79v0.37l0.5-0.49C213.97,44.48,214.24,44.26,214.42,44.18L214.42,44.18z M210.06,44.61
				c0.19-0.28,0.71-0.8,0.94-0.94c0.11-0.06,0.2-0.12,0.21-0.12c0.01-0.01-0.03-0.18-0.07-0.38c-0.09-0.4-0.12-1.13-0.06-1.39
				c0.03-0.12-0.03-0.06-0.21,0.21c-0.5,0.74-0.83,1.1-1.3,1.4c-0.01,0,0.05,0.19,0.12,0.41c0.08,0.22,0.15,0.54,0.17,0.71
				c0.02,0.17,0.04,0.31,0.05,0.31C209.91,44.81,209.98,44.72,210.06,44.61L210.06,44.61z M226.92,62.58
				c-0.31-0.26-0.36-0.79-0.12-1.45c0.22-0.63,0.79-1.34,1.26-1.56c0.24-0.11,0.62-0.11,0.78,0c0.55,0.38,0.23,1.76-0.62,2.62
				c-0.31,0.31-0.58,0.46-0.91,0.5C227.14,62.72,227.07,62.7,226.92,62.58L226.92,62.58z M222.9,62.59
				c-0.94-0.43-0.5-2.29,0.82-3.47c0.59-0.53,1.09-0.64,1.51-0.34c0.32,0.23,0.41,0.47,0.38,0.99c-0.04,0.75-0.4,1.47-1.09,2.16
				C223.9,62.56,223.34,62.79,222.9,62.59z M180.14,62.46c0-0.07,0.35-0.22,0.61-0.26c0.2-0.03,0.22-0.03,0.16,0.05
				C180.78,62.4,180.14,62.57,180.14,62.46z M175.77,62.39c-0.86-0.1-0.82-0.26,0.08-0.32c0.34-0.02,0.66-0.07,0.72-0.1
				c0.19-0.1,1.5-0.23,1.4-0.14c-0.02,0.02-0.18,0.06-0.37,0.1L177.27,62l0.52,0.04c0.82,0.06,1.01,0.18,0.46,0.3
				C177.88,62.42,176.29,62.45,175.77,62.39L175.77,62.39z M183.87,62.4c-0.24-0.06-0.29-0.1-0.29-0.25c0-0.59,3.47-1.54,4.33-1.19
				c0.35,0.15,0.2,0.43-0.38,0.72C186.56,62.17,184.55,62.56,183.87,62.4z M230.89,62.31c-0.29-0.31-0.17-1.01,0.29-1.59
				c0.35-0.44,0.7-0.58,0.95-0.38c0.11,0.09,0.13,0.15,0.13,0.5c0,0.46-0.16,0.86-0.49,1.22C231.42,62.46,231.11,62.55,230.89,62.31
				z M171.32,62.3c-0.46-0.04-1.89-0.29-2.24-0.4c-0.43-0.13-0.41-0.23,0.03-0.18c0.17,0.02,0.56,0.07,0.87,0.12
				c0.31,0.05,0.76,0.08,0.99,0.08s0.5,0.02,0.59,0.04c0.16,0.05,0.15,0.05-0.08,0.06l-0.24,0.01l0.29,0.07
				c0.16,0.04,0.3,0.09,0.32,0.11c0.05,0.05-0.1,0.14-0.2,0.13C171.6,62.33,171.46,62.31,171.32,62.3L171.32,62.3z M218.9,62.18
				c-0.59-0.19-0.84-0.89-0.61-1.68c0.34-1.15,1.65-2.6,2.54-2.8c0.25-0.05,0.68,0.03,0.88,0.17c0.09,0.06,0.22,0.25,0.3,0.41
				c0.12,0.27,0.13,0.34,0.11,0.84c-0.02,0.42-0.06,0.62-0.16,0.88c-0.47,1.15-1.64,2.14-2.57,2.2
				C219.19,62.22,218.98,62.21,218.9,62.18z M181.01,61.7c-0.2-0.12,0.2-0.31,1.22-0.57c1.41-0.36,2.35-0.48,2.35-0.29
				c0,0.22-1.31,0.64-2.59,0.83C181.31,61.76,181.11,61.77,181.01,61.7L181.01,61.7z M214.76,61.52c-0.16-0.08-0.29-0.21-0.4-0.39
				c-0.15-0.25-0.16-0.29-0.16-0.8c0-0.46,0.02-0.6,0.14-0.88c0.42-1.02,1.33-2.02,2.24-2.47c0.34-0.17,0.46-0.2,0.75-0.2
				c0.72,0,1.13,0.45,1.13,1.25c0,0.68-0.2,1.27-0.69,2c-0.46,0.7-1.06,1.23-1.68,1.49C215.69,61.69,215.09,61.69,214.76,61.52
				L214.76,61.52z M178.68,61.5c0.04-0.02,0.08-0.01,0.1,0c0.02,0.02-0.01,0.03-0.07,0.03C178.65,61.53,178.64,61.51,178.68,61.5z
				 M178.97,61.44c0.05-0.01,0.12-0.01,0.16,0c0.04,0.02-0.01,0.03-0.1,0.03C178.95,61.47,178.92,61.46,178.97,61.44L178.97,61.44z
				 M179.3,61.39c0.05-0.01,0.12-0.01,0.16,0c0.04,0.01-0.01,0.03-0.09,0.02C179.27,61.42,179.24,61.4,179.3,61.39L179.3,61.39z
				 M180.3,61.21c0.43-0.09,0.81-0.15,0.86-0.14c0.09,0.02-1,0.23-1.4,0.28C179.63,61.36,179.87,61.3,180.3,61.21z M160.25,61
				c-0.84-0.29-2.31-0.98-2.66-1.27c-0.55-0.44,0.76-0.04,2.38,0.72c0.65,0.31,0.88,0.47,0.88,0.62
				C160.84,61.19,160.78,61.18,160.25,61z M181.91,61.06c0-0.06,0.6-0.31,1.28-0.54c0.54-0.18,0.63-0.2,0.57-0.11
				c-0.05,0.08-0.61,0.33-1.2,0.53C182.07,61.11,181.91,61.14,181.91,61.06z M164.07,60.96c-0.49-0.13-1.46-0.46-1.68-0.57
				c-0.29-0.15-0.24-0.21,0.11-0.12c0.5,0.12,1.97,0.61,2.08,0.69c0.1,0.08,0.1,0.08-0.05,0.08C164.43,61.04,164.23,61,164.07,60.96
				L164.07,60.96z M188.12,60.99c-0.05-0.07,0.38-0.51,0.55-0.56c0.16-0.05,0.15,0.02-0.04,0.24
				C188.45,60.91,188.17,61.08,188.12,60.99L188.12,60.99z M191.66,60.97c-0.2-0.08-0.29-0.22-0.29-0.44c0-0.2,0.59-0.78,1.24-1.2
				c0.63-0.42,1.98-1.09,2.53-1.27c0.69-0.21,1.17-0.21,1.4,0.02c0.52,0.52-0.25,1.41-1.91,2.21
				C193.37,60.9,192.15,61.18,191.66,60.97L191.66,60.97z M164.68,60.89c-0.1-0.04-0.1-0.05,0.03-0.05c0.07,0,0.18,0.02,0.24,0.05
				c0.1,0.04,0.1,0.04-0.03,0.04C164.85,60.93,164.74,60.92,164.68,60.89z M185.03,60.89c0-0.14,0.64-0.55,1.06-0.67
				c0.24-0.07,0.12,0.1-0.21,0.33C185.34,60.91,185.03,61.03,185.03,60.89z M210.92,60.82c-0.12-0.03-0.31-0.15-0.46-0.3
				c-0.21-0.21-0.27-0.3-0.32-0.55c-0.3-1.45,1.54-3.78,3.21-4.08c0.51-0.09,0.87,0,1.17,0.29c0.26,0.26,0.35,0.5,0.35,0.97
				c0,1.12-1.22,2.79-2.52,3.44C211.8,60.87,211.36,60.94,210.92,60.82z M155.01,60.63c-0.75-0.31-1.21-0.63-1.21-0.83
				c0-0.09,0.03-0.1,0.15-0.07c0.36,0.08,1.84,0.93,1.84,1.05C155.79,60.89,155.48,60.83,155.01,60.63z M188.87,60.36
				c-0.39-0.17-0.02-0.68,0.93-1.25c0.87-0.53,2-0.97,2.62-1.04c0.4-0.04,0.72,0.07,0.72,0.25c0,0.4-0.76,0.99-2,1.54
				C190.22,60.26,189.18,60.49,188.87,60.36L188.87,60.36z M184.14,60.16c0.29-0.16,2.13-0.9,2.36-0.96c0.08-0.02,0.4-0.2,0.7-0.4
				c0.3-0.2,0.79-0.51,1.09-0.68c1.21-0.7,2.67-1.71,3.14-2.17c0.25-0.25,0.75-0.71,1.1-1.02c0.35-0.31,1.03-0.94,1.5-1.39
				c0.87-0.84,1.46-1.32,1.55-1.27c0.08,0.05-0.11,0.32-0.49,0.74c-0.19,0.21-0.54,0.64-0.76,0.95c-0.5,0.69-0.98,1.19-1,1.06
				c-0.01-0.05,0.05-0.2,0.13-0.34c0.08-0.14,0.11-0.23,0.07-0.2s-0.23,0.15-0.41,0.28c-0.19,0.13-0.37,0.23-0.41,0.23
				c-0.1,0-1.21,1.06-1.2,1.14c0.03,0.13-1.53,1.24-2.35,1.68c-0.21,0.11-0.68,0.4-1.05,0.65c-0.8,0.53-1.71,0.97-2.98,1.44
				C184.05,60.29,183.74,60.38,184.14,60.16L184.14,60.16z M186.06,59.95c0-0.11,0.4-0.35,1.13-0.69c0.7-0.33,2.05-0.9,2.13-0.9
				c0.03,0,0.33-0.27,0.67-0.61c0.34-0.33,0.71-0.65,0.83-0.71c0.12-0.06,0.36-0.22,0.54-0.35c1.06-0.81,2.35-1.66,2.7-1.77
				c0.37-0.12,0.46,0.09,0.18,0.44c-0.54,0.68-2.73,2.07-3.33,2.12c-0.19,0.01-0.28,0.07-0.65,0.42c-0.26,0.25-0.4,0.42-0.36,0.43
				c0.1,0.04-0.27,0.35-0.8,0.65C187.84,59.68,186.06,60.26,186.06,59.95z M160.64,59.4c-0.22-0.08-0.38-0.15-0.37-0.16
				c0.02-0.02,0.79,0.23,0.84,0.27C161.15,59.57,161.03,59.54,160.64,59.4z M156.48,58.29c-0.61-0.27-1.07-0.51-1.07-0.57
				c0-0.1,1.45,0.56,1.53,0.7C156.99,58.5,156.93,58.48,156.48,58.29z M192.18,57.75c0-0.16,0.21-0.47,0.55-0.83
				c0.27-0.28,0.41-0.35,0.41-0.22c0,0.1-0.58,0.94-0.74,1.06C192.23,57.91,192.18,57.91,192.18,57.75L192.18,57.75z M194.71,57.7
				c0-0.04,0.07-0.22,0.16-0.39c0.09-0.17,0.16-0.31,0.16-0.32s-0.2,0.06-0.45,0.16c-0.59,0.24-1.11,0.33-1.33,0.24
				c-0.44-0.18,0.01-0.8,1.31-1.82c1.38-1.08,2.3-1.56,2.68-1.41c0.61,0.23-0.31,1.61-1.63,2.44c-0.31,0.2-0.36,0.25-0.39,0.42
				C195.17,57.35,194.71,57.95,194.71,57.7L194.71,57.7z M152.27,57.6c-0.58-0.23-1.8-1.04-1.8-1.18c0-0.14,0.43,0.05,1.3,0.57
				c0.62,0.38,0.85,0.55,0.85,0.65C152.62,57.74,152.59,57.73,152.27,57.6z M225.54,56.65c-0.09-0.06-0.22-0.18-0.3-0.28
				c-0.11-0.16-0.13-0.24-0.13-0.72c0-0.51,0.01-0.56,0.19-0.94c0.47-0.98,1.24-1.65,1.77-1.53c0.62,0.14,0.87,1.03,0.53,1.94
				C227.17,56.28,226.16,57.03,225.54,56.65L225.54,56.65z M229.35,56.67c-0.48-0.2-0.37-1.22,0.22-2.04
				c0.32-0.45,0.62-0.67,0.89-0.67c0.59,0,0.76,0.68,0.38,1.49C230.43,56.32,229.79,56.85,229.35,56.67L229.35,56.67z M221.81,56.63
				c-0.62-0.19-0.94-0.92-0.76-1.76c0.15-0.69,0.81-1.73,1.4-2.19c0.71-0.56,1.24-0.6,1.64-0.12c0.18,0.22,0.24,0.37,0.3,0.77
				c0.09,0.65-0.12,1.41-0.61,2.16C223.21,56.37,222.43,56.82,221.81,56.63L221.81,56.63z M153.62,56.42
				c-0.11-0.06-0.2-0.12-0.2-0.13c0-0.03,0.42,0.17,0.48,0.22C153.96,56.57,153.8,56.52,153.62,56.42L153.62,56.42z M146.58,56.2
				c-0.14-0.09-0.26-0.2-0.26-0.24c0-0.09,0.02-0.08,0.36,0.16c0.12,0.08,0.23,0.18,0.23,0.21C146.92,56.4,146.85,56.38,146.58,56.2
				L146.58,56.2z M217.92,56.27c-0.72-0.23-1.04-1.05-0.81-2.04c0.24-1.01,1.19-2.27,2.01-2.68c0.24-0.12,0.37-0.15,0.7-0.15
				c0.36,0,0.43,0.02,0.62,0.15c0.64,0.45,0.74,1.57,0.23,2.66c-0.38,0.82-1.06,1.59-1.68,1.89
				C218.63,56.28,218.18,56.35,217.92,56.27z M148.86,54.43c-0.38-0.24-0.42-0.36-0.05-0.14c0.32,0.19,0.45,0.29,0.42,0.33
				C149.21,54.63,149.04,54.55,148.86,54.43z M194.85,54.13c-0.21-0.21,0.54-1.25,1.72-2.39c1.05-1.01,1.81-1.34,1.63-0.7
				c-0.1,0.36-0.58,0.96-1.39,1.78c-0.46,0.46-0.91,0.93-1,1.04c-0.13,0.18-0.17,0.2-0.21,0.13c-0.04-0.07-0.08-0.07-0.29,0.05
				C195.07,54.17,194.92,54.2,194.85,54.13L194.85,54.13z M143.76,52.58c-0.19-0.13-0.34-0.28-0.34-0.33c0-0.07,0.02-0.07,0.15,0.01
				c0.25,0.16,0.61,0.46,0.61,0.51C144.17,52.86,144.1,52.83,143.76,52.58z M194.79,52.62c0.18-0.28,0.88-1.19,0.95-1.23
				c0.06-0.04-0.2,0.33-0.78,1.09C194.74,52.79,194.63,52.87,194.79,52.62L194.79,52.62z M195.82,51.25
				c0.03-0.04,0.26-0.36,0.53-0.72c0.26-0.36,0.49-0.65,0.5-0.63s0,0.06-0.03,0.09c-0.03,0.04-0.26,0.35-0.52,0.7
				c-0.26,0.35-0.49,0.63-0.5,0.63C195.79,51.32,195.8,51.29,195.82,51.25L195.82,51.25z M196.22,51.04c0-0.08,0.16-0.34,0.54-0.88
				c0.41-0.58,0.79-1.27,1.9-3.49c0.81-1.6,1.22-2.53,1.89-4.22c0.04-0.1,0.27-0.74,0.51-1.41c0.24-0.67,0.49-1.36,0.57-1.53
				c0.23-0.5,0.22-0.18-0.03,0.56c-0.23,0.69-0.88,2.35-1,2.52c-0.04,0.06-0.14,0.31-0.22,0.56c-0.08,0.25-0.27,0.76-0.41,1.13
				c-0.14,0.37-0.27,0.72-0.29,0.78c-0.02,0.06,0.27-0.47,0.64-1.18c0.6-1.13,0.7-1.37,0.84-1.9c0.09-0.34,0.16-0.62,0.16-0.63
				c0-0.01,0.02-0.02,0.05-0.02c0.06,0,0.03,0.17-0.08,0.64c-0.07,0.29-0.07,0.29,0.04,0.17c0.25-0.27,0.28-0.04,0.07,0.54
				c-0.08,0.22-0.34,0.79-0.58,1.28c-0.68,1.36-1.32,2.37-1.51,2.37c-0.11,0-0.1-0.11,0.04-0.41c0.37-0.85,0.19-0.6-0.54,0.73
				c-0.43,0.79-0.61,1.16-0.62,1.31l-0.01,0.21l0.11-0.16c0.06-0.09,0.23-0.28,0.37-0.43c0.19-0.2,0.27-0.25,0.3-0.2
				c0.03,0.05,0.09-0.03,0.19-0.24c0.29-0.65,0.42-0.67,0.26-0.03c-0.06,0.23-0.1,0.43-0.09,0.43c0.01,0.01,0.17-0.21,0.37-0.49
				c0.78-1.1,1.29-1.63,1.53-1.59c0.08,0.02,0.1,0.08,0.12,0.29c0.05,0.75-0.8,2.23-1.9,3.34c-0.63,0.63-1.09,0.92-1.24,0.77
				c-0.07-0.08-0.08-0.12-0.02-0.3c0.04-0.11,0.14-0.34,0.23-0.5c0.13-0.24,0.47-1.12,0.47-1.23c0-0.02-0.09,0.12-0.2,0.29
				c-0.29,0.47-0.95,1.38-1.39,1.93c-0.21,0.27-0.43,0.55-0.48,0.63c-0.05,0.08-0.12,0.15-0.16,0.15c-0.04,0-0.12,0.06-0.19,0.13
				C196.3,51.11,196.22,51.14,196.22,51.04L196.22,51.04z M223.99,50.89c-0.22-0.07-0.5-0.36-0.58-0.59
				c-0.08-0.25-0.08-0.82,0.01-1.19c0.16-0.66,0.71-1.6,1.15-1.94c0.44-0.34,0.89-0.46,1.19-0.31c0.34,0.18,0.57,0.6,0.57,1.05
				c0,0.96-0.76,2.42-1.47,2.84C224.59,50.91,224.22,50.96,223.99,50.89L223.99,50.89z M220.14,50.61c-0.51-0.2-0.76-0.84-0.64-1.68
				c0.2-1.46,1.34-3,2.32-3.13c0.5-0.06,0.98,0.38,1.11,1.03c0.16,0.79,0,1.55-0.48,2.38c-0.27,0.45-0.98,1.16-1.34,1.33
				C220.79,50.68,220.39,50.71,220.14,50.61L220.14,50.61z M141.59,49.65c-0.07-0.06-0.18-0.15-0.24-0.19
				c-0.06-0.04-0.09-0.09-0.07-0.11c0.04-0.04,0.52,0.3,0.52,0.37C141.81,49.79,141.73,49.76,141.59,49.65z M201.21,44.79
				c-0.18-0.22,0.1-1.19,0.73-2.48c0.47-0.97,0.86-1.6,1.19-1.89c0.82-0.76,0.74,0.54-0.15,2.27c-0.42,0.81-0.98,1.66-1.3,1.96
				C201.41,44.89,201.32,44.92,201.21,44.79L201.21,44.79z M218.61,44.35c-0.49-0.25-0.73-0.72-0.77-1.45
				c-0.03-0.63,0.11-1.2,0.47-1.93c0.32-0.65,0.68-1.11,1.1-1.4c0.29-0.2,0.34-0.21,0.68-0.22c0.5,0,0.76,0.18,1.02,0.69
				c0.17,0.33,0.19,0.42,0.21,0.89c0.03,0.66-0.08,1.17-0.37,1.77c-0.41,0.85-0.86,1.37-1.37,1.61
				C219.29,44.46,218.84,44.47,218.61,44.35L218.61,44.35z M203.36,43.91c-0.12-0.1-0.13-0.14-0.12-0.61
				c0.01-0.42,0.04-0.59,0.2-1.09c0.11-0.32,0.34-0.88,0.51-1.23c0.66-1.34,1.28-2.06,1.74-2.02c0.84,0.08,0.11,2.69-1.22,4.35
				C204,43.89,203.6,44.1,203.36,43.91z M201.91,40.19c0-0.69,1.13-3.65,1.41-3.7c0.23-0.04,0.01,1.11-0.41,2.14
				c-0.42,1.02-0.82,1.77-0.95,1.77C201.94,40.41,201.91,40.31,201.91,40.19z M201.7,38.92c0-0.1,0.42-1.66,0.42-1.59
				c0.01,0.08-0.37,1.58-0.4,1.62C201.71,38.96,201.7,38.95,201.7,38.92z M203.48,38.89c-0.04-0.04-0.07-0.13-0.07-0.22
				c0-0.73,0.95-3.43,1.43-4.06c0.11-0.14,0.17-0.18,0.28-0.17c0.13,0.02,0.14,0.04,0.16,0.27c0.05,0.87-0.86,3.48-1.42,4.04
				C203.67,38.97,203.59,38.99,203.48,38.89z M205.58,37.85c-0.28-0.36-0.18-1.32,0.29-2.66c0.25-0.71,0.67-1.55,0.92-1.82
				c0.32-0.36,0.6-0.27,0.71,0.22c0.13,0.57,0.03,1.33-0.31,2.37C206.67,37.49,205.96,38.33,205.58,37.85z M207.93,37.5
				c-0.05-0.03-0.13-0.17-0.19-0.31c-0.12-0.32-0.12-1.09,0.01-1.7c0.23-1.09,0.78-2.34,1.24-2.81c0.24-0.25,0.3-0.28,0.49-0.28
				c0.54,0,0.79,0.8,0.59,1.94C209.73,36.23,208.61,37.9,207.93,37.5z M210.79,37.39c-0.33-0.13-0.51-0.46-0.6-1.03
				c-0.18-1.2,0.66-3.5,1.48-4.06c0.12-0.08,0.3-0.17,0.39-0.19c0.35-0.08,0.71,0.19,0.89,0.66c0.16,0.4,0.16,1.35,0,1.94
				C212.48,36.45,211.49,37.68,210.79,37.39L210.79,37.39z M202.13,37.15c0-0.06,0.02-0.07,0.03-0.03c0.02,0.04,0.01,0.09,0,0.1
				C202.14,37.24,202.13,37.21,202.13,37.15L202.13,37.15z M202.64,35.7c0.04-0.3,0.32-1.42,0.46-1.92
				c0.13-0.45,0.24-0.55,0.19-0.17c-0.05,0.37-0.45,1.91-0.54,2.14C202.64,36.01,202.59,35.99,202.64,35.7z M203.74,33.58
				c0-0.43,0.48-2.37,0.69-2.79c0.05-0.1,0.12-0.2,0.17-0.21c0.23-0.07-0.18,1.97-0.6,2.96C203.86,33.86,203.74,33.88,203.74,33.58
				L203.74,33.58z M205.29,32.19c-0.24-0.62,0.54-3.55,0.96-3.61c0.55-0.08-0.01,2.89-0.67,3.61c-0.08,0.08-0.16,0.15-0.18,0.15
				C205.37,32.34,205.33,32.27,205.29,32.19L205.29,32.19z M203.27,31.45c0-0.09,0.01-0.12,0.03-0.07c0.01,0.05,0.01,0.12,0,0.16
				C203.28,31.59,203.27,31.54,203.27,31.45L203.27,31.45z M207.2,31.23c-0.36-0.55,0.15-3.09,0.76-3.75
				c0.19-0.21,0.39-0.18,0.54,0.07c0.1,0.16,0.11,0.27,0.11,0.86c-0.01,0.81-0.17,1.48-0.53,2.24
				C207.73,31.35,207.41,31.56,207.2,31.23L207.2,31.23z M203.32,31.1c0-0.07,0.01-0.1,0.03-0.07c0.01,0.04,0.01,0.1,0,0.13
				C203.33,31.21,203.32,31.18,203.32,31.1z M209.5,30.86c-0.21-0.18-0.29-0.47-0.29-1.04c0.01-1.08,0.54-2.78,1.03-3.24
				c0.43-0.41,0.88-0.06,0.98,0.74c0.16,1.39-0.78,3.69-1.5,3.69C209.68,31,209.59,30.93,209.5,30.86z M203.98,28.43
				c0.02-0.08,0.06-0.33,0.09-0.55c0.09-0.55,0.18-0.68,0.13-0.19c-0.04,0.49-0.13,0.89-0.2,0.89
				C203.97,28.58,203.96,28.51,203.98,28.43L203.98,28.43z M205.03,26.19c0-0.34,0.18-1.37,0.27-1.54c0.11-0.2,0.16-0.12,0.16,0.24
				c0,0.56-0.25,1.58-0.38,1.58C205.05,26.48,205.03,26.35,205.03,26.19L205.03,26.19z M206.5,24.94c-0.12-0.43,0.05-1.75,0.29-2.25
				c0.12-0.26,0.27-0.24,0.35,0.05c0.12,0.42-0.11,1.85-0.35,2.21C206.67,25.13,206.55,25.12,206.5,24.94L206.5,24.94z"/>
		</defs>
		<clipPath id="path3347_1_">
			<use xlink:href="#path3347_24_"  style="overflow:visible;"/>
		</clipPath>
		<path class="st4" d="M472.67-17.25c0,0,24,64.33-126.33,65.33c-75.79,0.5-150.67,3.5-244.17,36
			c-48.78,16.96-114.83,0.67-114.83,0.67l8-97.67L472.67-17.25z"/>
	</g>
	<g class="st5">
		<g>
			<defs>
				<path id="SVGID_1_" d="M25.67,44.53h65.45V34.17H25.67l0.09-15.38h66.87c1.35,0,2.85,0.45,4.49,1.33
					c1.64,0.89,3.15,2.01,4.54,3.37c1.39,1.35,2.54,2.85,3.47,4.49c0.93,1.64,1.39,3.17,1.39,4.59v14.21c0,1.43-0.5,2.9-1.49,4.43
					c-1,1.53-2.24,2.92-3.74,4.16c-1.5,1.25-3.1,2.26-4.81,3.04c-1.71,0.79-3.24,1.18-4.59,1.18H41.35v16.45h-15.6L25.67,44.53z"/>
			</defs>
			<clipPath id="SVGID_2_">
				<use xlink:href="#SVGID_1_"  style="overflow:visible;"/>
			</clipPath>
			<path class="st6" d="M472.67-17.25c0,0,24,64.33-126.33,65.33c-75.79,0.5-150.67,3.5-244.17,36
				c-48.78,16.96-114.83,0.67-114.83,0.67l8-97.67L472.67-17.25z"/>
		</g>
		<g>
			<defs>
				<path id="SVGID_3_" d="M130.53,76.04c-1.42,0-2.96-0.41-4.59-1.23c-1.64-0.82-3.15-1.9-4.54-3.26
					c-1.38-1.35-2.53-2.88-3.42-4.59c-0.89-1.71-1.33-3.49-1.33-5.34V18.79h15.38v41.87h34.71v15.38H130.53z"/>
			</defs>
			<clipPath id="SVGID_4_">
				<use xlink:href="#SVGID_3_"  style="overflow:visible;"/>
			</clipPath>
			<path class="st7" d="M472.67-17.25c0,0,24,64.33-126.33,65.33c-75.79,0.5-150.67,3.5-244.17,36
				c-48.78,16.96-114.83,0.67-114.83,0.67l8-97.67L472.67-17.25z"/>
		</g>
		<g>
			<defs>
				<path id="SVGID_5_" d="M278.33,30.43c0-1.71,0.39-3.28,1.17-4.7c0.78-1.42,1.83-2.67,3.15-3.74c1.32-1.07,2.86-1.88,4.64-2.46
					c1.78-0.57,3.67-0.85,5.66-0.85h0.75c2.28,0,4.65,0.41,7.1,1.23c2.46,0.82,4.39,2.19,5.82,4.11l34.39,34.82V18.79h15.49V64.4
					c0,1.71-0.39,3.29-1.18,4.75c-0.78,1.46-1.83,2.69-3.15,3.69c-1.32,1-2.88,1.78-4.7,2.35c-1.82,0.57-3.72,0.85-5.72,0.85
					c-2.71,0-5.31-0.71-7.8-2.13c-2.49-1.43-4.66-3.31-6.52-5.66L294.14,34.6c-0.14-0.07-0.25-0.11-0.32-0.11v41.55h-15.49V30.43z"
					/>
			</defs>
			<clipPath id="SVGID_6_">
				<use xlink:href="#SVGID_5_"  style="overflow:visible;"/>
			</clipPath>
			<path class="st8" d="M472.67-17.25c0,0,24,64.33-126.33,65.33c-75.79,0.5-150.67,3.5-244.17,36
				c-48.78,16.96-114.83,0.67-114.83,0.67l8-97.67L472.67-17.25z"/>
		</g>
	</g>
	<g class="st9">
		<g>
			<defs>
				<path id="SVGID_7_" d="M375.49,74.55c-1.46-1-2.88-2.19-4.27-3.58c-1.39-1.39-2.58-2.87-3.58-4.43c-1-1.57-1.49-2.88-1.49-3.95
					V31.82c0-1.21,0.48-2.58,1.44-4.11c0.96-1.53,2.15-2.95,3.58-4.27c1.42-1.31,2.94-2.42,4.54-3.31c1.6-0.89,3.04-1.33,4.33-1.33
					h52.77c1.35,0,2.83,0.41,4.43,1.23c1.6,0.82,3.1,1.87,4.48,3.15c1.39,1.28,2.56,2.69,3.52,4.22c0.96,1.53,1.45,3.01,1.45,4.43
					v31.51c0,1-0.5,2.23-1.5,3.69c-1,1.46-2.21,2.87-3.63,4.22c-1.43,1.35-2.88,2.49-4.38,3.42c-1.5,0.93-2.71,1.39-3.63,1.39
					h-54.37C378.18,76.04,376.95,75.55,375.49,74.55z M431.31,60.66V34.17h-49.78v26.49H431.31z"/>
			</defs>
			<clipPath id="SVGID_8_">
				<use xlink:href="#SVGID_7_"  style="overflow:visible;"/>
			</clipPath>
			<path class="st10" d="M472.67-17.25c0,0,24,64.33-126.33,65.33c-75.79,0.5-150.67,3.5-244.17,36
				c-48.78,16.96-114.83,0.67-114.83,0.67l8-97.67L472.67-17.25z"/>
		</g>
		<g>
			<defs>
				<path id="SVGID_9_" d="M456.78,18.79h15.81v19.33l37.6-19.33h29.48l-53.19,28.3l53.19,28.95h-29.48l-37.6-19.76v19.76h-15.81
					V18.79z"/>
			</defs>
			<clipPath id="SVGID_10_">
				<use xlink:href="#SVGID_9_"  style="overflow:visible;"/>
			</clipPath>
			<path class="st11" d="M472.67-17.25c0,0,24,64.33-126.33,65.33c-75.79,0.5-150.67,3.5-244.17,36
				c-48.78,16.96-114.83,0.67-114.83,0.67l8-97.67L472.67-17.25z"/>
		</g>
	</g>
</g>
</svg>
